<svg width="196" height="79" viewBox="0 0 196 79" fill="none" xmlns="http://www.w3.org/2000/svg">
<path d="M5.41483 40.1993V47.3855H17.0955V40.1993C17.0955 39.1721 17.3434 38.4039 17.8343 37.8903C18.3253 37.3767 18.9753 37.1221 19.7749 37.1221C20.5885 37.1221 21.2478 37.3767 21.7528 37.8815C22.2578 38.3907 22.5104 39.1633 22.5104 40.1993V59.9624C22.5104 60.9984 22.2532 61.7754 21.7435 62.289C21.2338 62.8026 20.5792 63.0572 19.7749 63.0572C18.9613 63.0572 18.3113 62.7982 17.825 62.2802C17.3387 61.7622 17.0955 60.9896 17.0955 59.9624V51.5295H5.41483V59.9624C5.41483 60.9984 5.15765 61.7754 4.64796 62.289C4.13828 62.8026 3.48363 63.0572 2.67936 63.0572C1.86573 63.0572 1.21576 62.7982 0.729459 62.2802C0.243153 61.7578 0 60.9852 0 59.9624V40.1993C0 39.1721 0.238477 38.4039 0.720107 37.8903C1.19706 37.3767 1.8517 37.1221 2.67936 37.1221C3.49299 37.1221 4.1523 37.3767 4.65731 37.8815C5.16232 38.3863 5.41483 39.1633 5.41483 40.1993Z" fill="white"/>
<path d="M45.9279 41.4636H33.7375V47.6225H44.9646C45.7923 47.6225 46.4048 47.7981 46.8163 48.1449C47.2278 48.4917 47.4289 48.9526 47.4289 49.5233C47.4289 50.094 47.2278 50.5593 46.8304 50.9193C46.4282 51.2792 45.811 51.4592 44.9693 51.4592H33.7375V58.5927H46.3487C47.1998 58.5927 47.8404 58.7771 48.2706 59.1502C48.7008 59.519 48.9159 60.015 48.9159 60.6296C48.9159 61.2222 48.7008 61.7051 48.2706 62.0738C47.8404 62.4426 47.1998 62.6313 46.3487 62.6313H31.638C30.4596 62.6313 29.6133 62.3855 29.0942 61.8939C28.5752 61.4022 28.318 60.612 28.318 59.5146V40.6602C28.318 39.9315 28.4349 39.3345 28.664 38.8736C28.8931 38.4126 29.2579 38.0746 29.7489 37.8639C30.2398 37.6532 30.8711 37.5479 31.6333 37.5479H45.9232C46.7883 37.5479 47.4289 37.7278 47.845 38.0878C48.2659 38.4478 48.4716 38.9175 48.4716 39.5013C48.4716 40.094 48.2612 40.5724 47.845 40.928C47.4289 41.2836 46.7883 41.4636 45.9279 41.4636Z" fill="white"/>
<path d="M60.489 51.9026H58.5952V59.9623C58.5952 61.0247 58.3474 61.8061 57.8471 62.3065C57.3468 62.8069 56.6968 63.0615 55.8972 63.0615C55.0321 63.0615 54.3681 62.7982 53.8912 62.2758C53.4189 61.7534 53.1804 60.9808 53.1804 59.9667V40.669C53.1804 39.576 53.4423 38.7814 53.9613 38.2897C54.485 37.7981 55.3267 37.5522 56.4957 37.5522H65.296C66.5117 37.5522 67.5498 37.6005 68.4149 37.6971C69.2753 37.7937 70.0562 37.9912 70.7482 38.2853C71.5852 38.6146 72.3287 39.0887 72.974 39.7077C73.6193 40.3222 74.1056 41.0378 74.4423 41.8543C74.7743 42.6708 74.9426 43.5356 74.9426 44.4443C74.9426 46.3143 74.3815 47.8069 73.2592 48.9263C72.137 50.0457 70.4303 50.8359 68.1484 51.3056C69.1069 51.7841 70.0234 52.4908 70.9025 53.4259C71.7769 54.3609 72.5578 55.3574 73.2452 56.411C73.9326 57.4645 74.4657 58.4171 74.8491 59.2687C75.2325 60.1204 75.4242 60.7042 75.4242 61.0247C75.4242 61.3539 75.312 61.6831 75.0876 62.008C74.8631 62.3328 74.5545 62.5918 74.1664 62.7762C73.7783 62.965 73.3294 63.0572 72.815 63.0572C72.2071 63.0572 71.6975 62.9211 71.286 62.6533C70.8745 62.3855 70.5191 62.0475 70.2198 61.6349C69.9206 61.2222 69.5184 60.6208 69.0087 59.8219L66.8391 56.4329C66.0629 55.1906 65.3661 54.2424 64.7536 53.5927C64.141 52.943 63.5191 52.4996 62.8832 52.2582C62.2425 52.0211 61.4476 51.9026 60.489 51.9026ZM63.5846 41.3626H58.5906V48.259H63.4396C64.7395 48.259 65.8337 48.1537 66.7175 47.943C67.6059 47.7323 68.284 47.3723 68.7516 46.8631C69.2192 46.3539 69.453 45.6559 69.453 44.7691C69.453 44.0755 69.2659 43.461 68.8872 42.9298C68.5084 42.3986 67.9894 42.0035 67.3207 41.7401C66.6894 41.4899 65.4456 41.3626 63.5846 41.3626Z" fill="white"/>
<path d="M135.081 62.6313H126.916C125.738 62.6313 124.896 62.3811 124.391 61.8851C123.886 61.389 123.634 60.5988 123.634 59.5146V40.6602C123.634 39.554 123.891 38.7594 124.405 38.2722C124.92 37.7893 125.757 37.5435 126.912 37.5435H135.567C136.844 37.5435 137.947 37.6181 138.882 37.7673C139.818 37.9166 140.655 38.2019 141.398 38.6234C142.029 38.9789 142.59 39.4267 143.077 39.9666C143.563 40.5066 143.933 41.108 144.19 41.7621C144.447 42.4162 144.573 43.1098 144.573 43.8429C144.573 46.3538 143.236 48.1888 140.566 49.3521C144.077 50.4013 145.831 52.4425 145.831 55.4759C145.831 56.8807 145.448 58.1405 144.681 59.2643C143.914 60.3881 142.88 61.2178 141.58 61.7534C140.767 62.0738 139.832 62.2977 138.775 62.4294C137.723 62.5655 136.488 62.6313 135.081 62.6313ZM129.044 41.3626V47.8464H134.001C135.347 47.8464 136.39 47.7279 137.124 47.4864C137.858 47.245 138.419 46.7928 138.808 46.1168C139.112 45.6383 139.261 45.1027 139.261 44.5101C139.261 43.2458 138.78 42.403 137.821 41.986C136.862 41.5689 135.399 41.3626 133.43 41.3626H129.044ZM134.679 51.4899H129.049V58.8122H134.861C138.518 58.8122 140.346 57.5742 140.346 55.0984C140.346 53.8341 139.874 52.9122 138.924 52.3416C137.975 51.7753 136.558 51.4899 134.679 51.4899Z" fill="white"/>
<path d="M168.122 41.4636H155.931V47.6225H167.158C167.986 47.6225 168.598 47.7981 169.01 48.1449C169.417 48.4917 169.623 48.9526 169.623 49.5233C169.623 50.094 169.421 50.5593 169.024 50.9193C168.622 51.2792 168.005 51.4592 167.163 51.4592H155.936V58.5927H168.547C169.398 58.5927 170.039 58.7771 170.469 59.1502C170.899 59.519 171.114 60.015 171.114 60.6296C171.114 61.2222 170.899 61.7051 170.469 62.0738C170.039 62.4426 169.398 62.6313 168.547 62.6313H153.841C152.663 62.6313 151.816 62.3855 151.297 61.8939C150.778 61.4022 150.521 60.612 150.521 59.5146V40.6602C150.521 39.9315 150.638 39.3345 150.867 38.8736C151.096 38.4126 151.461 38.0746 151.952 37.8639C152.443 37.6532 153.074 37.5479 153.836 37.5479H168.126C168.991 37.5479 169.632 37.7278 170.048 38.0878C170.469 38.4478 170.675 38.9175 170.675 39.5013C170.675 40.094 170.464 40.5724 170.048 40.928C169.623 41.2836 168.982 41.4636 168.122 41.4636Z" fill="white"/>
<path d="M193.017 41.4636H180.822V47.6225H192.049C192.876 47.6225 193.489 47.7981 193.901 48.1449C194.307 48.4917 194.513 48.9526 194.513 49.5233C194.513 50.094 194.312 50.5593 193.915 50.9193C193.512 51.2792 192.895 51.4592 192.053 51.4592H180.822V58.5927H193.433C194.284 58.5927 194.925 58.7771 195.355 59.1502C195.785 59.519 196 60.015 196 60.6296C196 61.2222 195.785 61.7051 195.355 62.0738C194.925 62.4426 194.284 62.6313 193.433 62.6313H178.727C177.548 62.6313 176.702 62.3855 176.183 61.8939C175.664 61.4022 175.407 60.612 175.407 59.5146V40.6602C175.407 39.9315 175.524 39.3345 175.753 38.8736C175.982 38.4126 176.347 38.0746 176.838 37.8639C177.329 37.6532 177.96 37.5479 178.722 37.5479H193.012C193.877 37.5479 194.518 37.7278 194.934 38.0878C195.355 38.4478 195.561 38.9175 195.561 39.5013C195.561 40.094 195.35 40.5724 194.934 40.928C194.518 41.2836 193.877 41.4636 193.017 41.4636Z" fill="white"/>
<path d="M105.997 13.9736C106.13 13.5674 106.3 12.8888 105.921 11.7203C105.689 11.0082 105.185 9.42502 104.136 8.41143L106.197 4.88478C106.545 4.39473 106.978 3.45234 106.835 2.88271C106.719 2.42617 106.327 2.05759 105.675 1.96545C105.02 1.8733 104.587 2.35078 104.248 2.8869L101.986 6.66485C101.151 6.04078 100.451 5.73084 99.2017 5.37063C96.1055 4.54551 93.3527 5.93188 92.8932 6.20832L90.9659 2.90365C90.7115 2.38429 89.9531 1.92356 89.3463 1.96963C88.927 2.00314 88.5477 2.27958 88.2622 2.81151C87.9722 3.356 88.6726 4.5874 88.976 5.12352L90.5108 7.85437C90.5108 7.86693 90.5063 7.87531 90.5063 7.89206C90.2342 8.15593 86.6025 11.7915 87.7402 17.915C87.7447 17.9317 87.7268 17.9443 87.709 17.9359C86.4776 16.9684 84.5012 15.649 81.793 14.6982C78.6655 13.6009 73.4768 13.1025 69.8854 14.0365C68.7388 14.3339 59.6686 16.8218 58.281 23.6489C57.6118 26.9452 59.0395 29.6719 59.6106 30.7232C63.55 37.9482 73.4055 38.8487 73.8338 38.8822C77.3628 39.1544 80.3163 38.3545 81.2309 38.0948C83.8453 37.3618 86.0225 36.2184 87.9677 35.1922C89.2214 34.5304 90.2386 33.9273 90.9525 33.4875C92.5586 32.386 95.0749 30.6394 98.131 28.4363C105.216 23.3306 105.849 22.5055 108.508 21.362C110.168 20.65 115.589 18.2542 121.67 19.8416C122.95 20.1767 125.779 20.9516 128.005 23.3138C128.491 23.829 129.303 24.7086 129.821 26.0908C129.946 26.43 130.914 29.1357 129.62 31.8163C127.938 35.3053 123.633 36.2644 121.612 36.6875C119.555 37.1189 117.44 37.1859 115.343 36.9765C113.934 36.8341 112.283 36.6288 110.458 36.3273C105.091 35.4393 103.926 34.6603 101.107 34.2414C99.3847 33.9859 90.6759 32.9179 84.2246 38.3461C78.5986 43.079 78.2997 49.7051 78.2819 50.4087C78.264 51.104 78.1882 58.7018 84.7644 63.7949C90.7695 68.4483 99.4739 68.8168 105.773 65.2064C109.093 63.3007 111.886 60.2473 113.55 55.9668C114.433 53.638 114.643 51.6485 114.679 50.3333C114.741 48.0088 114.295 46.3334 113.523 45.035C112.93 44.0381 112.376 43.657 111.81 43.5313C111.034 43.3596 110.355 43.7031 110.257 43.7533C109.57 44.1135 109.311 44.6957 109.245 44.8591C109.24 44.8758 108.781 46.2538 109.717 47.0706C110.837 48.0507 110.632 53.4998 108.035 57.8055C107.531 58.6432 107.049 59.2044 106.893 59.3845C105.434 61.0473 103.81 61.8515 103.016 62.241C101.321 63.0787 99.4962 63.4934 97.9034 63.6902C95.0079 64.0462 92.0678 63.4599 89.5605 62.0525C88.6726 61.5541 85.3221 59.6651 83.6356 55.8076C80.8071 49.3533 85.1793 43.2926 85.5273 42.8235C86.3839 41.8267 87.9365 40.2853 90.3457 39.1754C91.1889 38.7901 92.6657 38.1869 94.7804 37.9398C101.276 37.1859 107.112 40.4152 114.174 41.0686C118.27 41.4497 121.763 41.1188 124.226 40.7293C125.239 40.5659 126.22 40.2769 127.131 39.8288C129.022 38.8989 132.003 36.9388 133.613 33.2907C133.841 32.7797 134.019 32.2729 134.162 31.7786C134.162 31.7786 134.684 29.9734 134.635 28.2394C134.532 24.8426 131.726 21.6594 131.423 21.3201C128.469 18.0406 124.668 16.9893 122.919 16.5328C115.076 14.4721 107.866 17.1862 105.144 18.8406C100.946 21.3872 97.6938 23.6615 95.5076 25.2656C93.0627 27.0583 84.2469 33.655 79.3794 34.7524C77.6617 35.1419 75.9307 35.209 75.9307 35.209C75.7567 35.209 73.9007 35.2802 72.1339 34.9744C71.2773 34.8278 64.7859 33.7053 62.5908 28.763C62.3321 28.185 61.6227 26.518 61.9618 24.4238C62.5194 20.9934 65.6291 18.0951 69.9389 16.8218C69.9389 16.8218 75.8191 14.6815 81.7975 17.3453C82.4578 17.6385 84.3405 18.5348 85.0945 19.1338C85.157 19.184 85.3801 19.3641 85.7102 19.5652C85.8307 19.6364 86.3081 19.9254 86.8301 20.0929C87.236 20.2228 88.2622 20.5578 89.2526 20.0887C90.0602 19.7076 90.3948 19.0039 90.4974 18.7903C90.8275 18.1034 90.7829 17.4375 90.7606 17.1233C90.7428 16.8804 90.7205 16.893 90.6714 16.47C90.6357 16.1809 90.5777 15.6448 90.6 14.9831C90.6312 14.137 90.7829 13.4585 90.8989 12.9642C90.9212 12.8637 90.9435 12.7632 90.9614 12.7087C91.3986 11.2596 92.4872 10.1789 92.4872 10.1789C92.4917 10.1748 92.5541 10.1161 92.6121 10.0575C93.1341 9.56743 94.8295 8.13499 97.2342 8.30253C99.0902 8.42818 100.803 9.4711 101.678 10.8323C102.856 12.6711 102.062 14.4134 103.36 15.071C103.882 15.3349 104.694 15.3977 105.265 15.0501C105.738 14.7569 105.894 14.2752 105.997 13.9736Z" fill="white"/>
<path d="M85.0945 67.0452C85.8663 67.6693 86.9862 68.4693 88.4451 69.1855C92.1436 71.0033 95.5477 71.0619 97.1182 70.9907C102.244 70.7604 105.849 68.3436 107.259 67.2798C107.317 67.2212 107.781 66.7814 108.388 66.8903C108.473 66.907 108.954 66.9992 109.155 67.4306C109.387 67.9248 109.062 68.4442 109.008 68.5237C109.008 68.5237 108.981 68.5656 108.928 68.6285C108.888 68.6703 108.816 68.7374 108.727 68.8211C108.285 69.2358 106.889 70.4756 103.275 71.8368C102.909 71.975 102.365 72.1719 101.691 72.3855C100.951 72.62 99.92 72.8881 98.6663 73.0347C97.0736 73.2232 95.8511 73.1268 94.9142 73.0514C94.0041 72.976 92.9556 72.8797 91.6261 72.5321C90.4483 72.2221 89.6006 71.8577 88.8154 71.5185C88.3737 71.3258 87.1022 70.7729 85.5585 69.7803C83.3545 68.3646 83.2697 67.8117 83.2831 67.5478C83.301 67.2421 83.4794 66.9154 83.756 66.7562C84.1264 66.5552 84.6573 66.6641 85.0945 67.0452Z" fill="white"/>
<path d="M103.694 74.2325C103.61 74.1362 103.48 73.9896 103.257 73.9519C102.909 73.8933 102.646 74.1236 102.61 74.1529C101.794 74.7058 99.7415 75.9456 96.8103 76.0796C96.7836 76.0796 96.7434 76.0796 96.7077 76.0838C96.5293 76.0838 95.9448 76.088 95.7663 76.0796C92.8396 75.9456 90.7829 74.71 89.9664 74.1529C89.9307 74.1236 89.6675 73.8933 89.3195 73.9519C89.0964 73.9896 88.9626 74.1404 88.8823 74.2325C88.503 74.6639 88.5967 75.2503 88.6235 75.4053C88.6369 75.4514 88.6592 75.5184 88.6994 75.5938C88.7752 75.7487 88.8778 75.866 89.1366 76.0922C89.266 76.2053 89.431 76.3435 89.6318 76.4943C90.7427 77.244 93.0047 78.4209 96.2839 78.3414C99.5631 78.4168 101.825 77.244 102.936 76.4943C103.137 76.3435 103.302 76.2053 103.431 76.0922C103.69 75.866 103.793 75.7487 103.868 75.5938C103.909 75.5184 103.931 75.4514 103.944 75.4053C103.98 75.2503 104.074 74.6639 103.694 74.2325Z" fill="white"/>
<path d="M88.8734 4.47016C90.1054 4.47016 91.1042 3.53255 91.1042 2.37595C91.1042 1.21935 90.1054 0.281738 88.8734 0.281738C87.6414 0.281738 86.6427 1.21935 86.6427 2.37595C86.6427 3.53255 87.6414 4.47016 88.8734 4.47016Z" fill="white"/>
<path d="M105.653 4.47016C106.885 4.47016 107.884 3.53255 107.884 2.37595C107.884 1.21935 106.885 0.281738 105.653 0.281738C104.421 0.281738 103.422 1.21935 103.422 2.37595C103.422 3.53255 104.421 4.47016 105.653 4.47016Z" fill="white"/>
</svg>
