<svg width="251" height="243" viewBox="0 0 251 243" fill="none" xmlns="http://www.w3.org/2000/svg">
<g clip-path="url(#clip0_119_529)">
<path d="M234 110.263L175.75 207.748L59.25 207.748L1.00001 110.263L59.25 12.7778L175.75 12.7778L234 110.263Z" fill="#F9B233"/>
<path d="M26.0015 25.9484C47.5348 18.4756 82.3829 9.26361 125.934 10.0901C160.944 10.7616 189.726 17.6835 209.878 24.2782C212.731 25.208 215.871 24.0027 217.235 21.4199C218.94 18.2001 217.235 14.3087 213.628 13.2411C191.467 6.68081 160.172 0.0344355 122.381 -1.71957e-06C80.1936 -0.0516575 46.0454 8.16161 23.6328 15.3418C24.4224 18.8716 25.2119 22.4186 26.0015 25.9484Z" fill="#0E5C1A"/>
<path d="M30.9183 26.224C33.7714 20.869 31.5463 14.2915 25.9656 11.5537C20.3849 8.81595 13.5301 10.9511 10.6769 16.306C7.82378 21.661 10.0489 28.2385 15.6296 30.9763C21.2103 33.714 28.0651 31.5789 30.9183 26.224ZM13.2968 17.5974C15.4143 13.6199 20.4925 12.0358 24.6377 14.0676C28.7829 16.0994 30.4338 20.9723 28.3163 24.9498C26.1989 28.9273 21.1206 30.5114 16.9754 28.4796C12.8303 26.4478 11.1794 21.5749 13.2968 17.5974Z" fill="#0E5C1A"/>
<path d="M29.2494 21.2822C29.2494 25.759 25.4631 29.3749 20.8155 29.3749C16.1679 29.3749 12.3637 25.759 12.3637 21.2822C12.3637 16.8054 16.15 13.1895 20.8155 13.1895C25.4811 13.1895 29.2494 16.8054 29.2494 21.2822Z" fill="#0E5C1A"/>
<path d="M235.341 57.2174C232.649 77.8797 225.759 110.061 206.271 144.998C190.606 173.064 172.123 193.399 157.642 206.881C155.596 208.793 155.309 211.858 156.978 214.062C159.077 216.834 163.24 217.109 165.735 214.664C181.041 199.529 200.367 177.042 216.661 146.444C234.857 112.282 242.339 81.0996 245.677 59.8518C242.232 58.9737 238.786 58.0955 235.323 57.2002L235.341 57.2174Z" fill="#0E5C1A"/>
<path d="M249.697 57.1141C252.137 52.5339 250.235 46.9379 245.462 44.5962C240.689 42.2544 234.857 44.0796 232.416 48.6598C229.976 53.2399 231.878 58.8359 236.651 61.1777C241.424 63.5194 247.256 61.6942 249.697 57.1141ZM234.659 49.7445C236.472 46.3525 240.796 44.9922 244.331 46.7313C247.866 48.4703 249.284 52.62 247.472 56.0121C245.659 59.4042 241.335 60.7644 237.8 59.0253C234.264 57.2863 232.847 53.1366 234.659 49.7445Z" fill="#0E5C1A"/>
<path d="M248.261 52.8783C248.261 56.7008 245.031 59.783 241.065 59.783C237.1 59.783 233.87 56.7008 233.87 52.8783C233.87 49.0558 237.1 45.9737 241.065 45.9737C245.031 45.9737 248.261 49.0558 248.261 52.8783Z" fill="#0E5C1A"/>
<path d="M100.076 226.132C83.4595 212.736 59.0551 189.697 39.083 155.019C23.0407 127.142 15.2887 101.211 11.3588 82.2188C10.8026 79.5327 8.29035 77.6387 5.41924 77.7764C1.86624 77.9658 -0.663922 81.1685 0.143577 84.4917C5.06035 105.051 14.2479 132.824 32.1564 162.595C52.1465 195.81 75.3666 218.797 92.1446 233.037C94.7825 230.729 97.4382 228.439 100.076 226.132Z" fill="#0E5C1A"/>
<path d="M104.49 224.737C99.7172 222.395 93.8853 224.221 91.4448 228.801C89.0044 233.381 90.9065 238.977 95.6797 241.319C100.453 243.66 106.285 241.835 108.725 237.255C111.166 232.675 109.264 227.079 104.49 224.737ZM105.8 228.87C105.657 228.697 105.513 228.525 105.37 228.353C105.531 228.508 105.675 228.68 105.8 228.87ZM104.867 227.888C104.706 227.75 104.526 227.595 104.347 227.475C104.526 227.613 104.706 227.75 104.867 227.888ZM103.701 227.079C103.521 226.976 103.324 226.872 103.127 226.786C103.198 226.821 103.288 226.838 103.36 226.872C103.486 226.941 103.593 227.01 103.701 227.079ZM101.135 226.218C100.866 226.184 100.596 226.149 100.309 226.132C100.579 226.132 100.848 226.166 101.135 226.218ZM102.427 226.528C102.211 226.459 101.978 226.373 101.763 226.321C101.996 226.373 102.211 226.442 102.427 226.528ZM99.7172 226.166C99.4301 226.166 99.1609 226.201 98.8918 226.252C99.1609 226.201 99.448 226.184 99.7172 226.166ZM98.2817 226.373C98.0304 226.442 97.7971 226.511 97.5639 226.597C97.7971 226.511 98.0484 226.442 98.2817 226.373ZM96.9717 226.838C96.7564 226.941 96.5231 227.044 96.3257 227.182C96.541 227.062 96.7564 226.941 96.9717 226.838ZM93.8853 229.593C93.7776 229.765 93.6879 229.937 93.5982 230.109C93.634 230.041 93.652 229.972 93.6879 229.903C93.7417 229.782 93.8314 229.696 93.9032 229.593H93.8853ZM94.7466 228.456C94.5851 228.611 94.4415 228.784 94.3159 228.956C94.4595 228.784 94.603 228.611 94.7466 228.456ZM92.988 232.124C92.9522 232.348 92.9163 232.572 92.9163 232.813C92.9163 232.589 92.9522 232.365 92.988 232.124ZM93.2931 230.867C93.2213 231.056 93.1495 231.246 93.1137 231.435C93.1675 231.246 93.2393 231.056 93.2931 230.867ZM94.3518 237.203C94.4954 237.376 94.6389 237.565 94.8004 237.72C94.6389 237.548 94.4954 237.376 94.3518 237.203ZM92.9163 233.484C92.9163 233.708 92.9522 233.932 92.988 234.156C92.9522 233.932 92.9342 233.708 92.9163 233.484ZM93.1495 234.862C93.2034 235.068 93.2572 235.258 93.3469 235.447C93.2752 235.258 93.2213 235.051 93.1495 234.862ZM96.4513 238.994C96.6487 239.115 96.8461 239.218 97.0614 239.304C96.9897 239.27 96.8999 239.252 96.8102 239.218C96.6846 239.149 96.5769 239.063 96.4513 238.994ZM99.0353 239.872C99.3045 239.907 99.5916 239.941 99.8787 239.958C99.5916 239.958 99.3224 239.924 99.0353 239.872ZM97.7254 239.562C97.9586 239.648 98.1919 239.717 98.4432 239.769C98.2099 239.717 97.9766 239.631 97.7254 239.562ZM104.401 238.564C104.58 238.426 104.778 238.288 104.939 238.133C104.76 238.288 104.58 238.426 104.401 238.564ZM100.471 239.924C100.74 239.924 101.009 239.89 101.278 239.838C101.009 239.89 100.74 239.907 100.471 239.924ZM101.924 239.717C102.158 239.666 102.391 239.597 102.606 239.511C102.373 239.597 102.158 239.648 101.924 239.717ZM103.234 239.252C103.45 239.149 103.647 239.046 103.844 238.925C103.647 239.046 103.432 239.149 103.234 239.252ZM106.303 236.515C106.41 236.343 106.5 236.188 106.59 236.015C106.554 236.084 106.536 236.153 106.5 236.222C106.446 236.325 106.357 236.429 106.303 236.532V236.515ZM105.441 237.651C105.585 237.496 105.729 237.324 105.872 237.152C105.747 237.324 105.603 237.479 105.441 237.651ZM107.2 234.001C107.236 233.777 107.272 233.553 107.272 233.312C107.272 233.536 107.236 233.76 107.2 234.001ZM106.895 235.258C106.967 235.068 107.021 234.879 107.074 234.69C107.021 234.879 106.949 235.068 106.895 235.258ZM106.841 230.678C106.913 230.867 106.967 231.056 107.039 231.263C106.985 231.056 106.931 230.867 106.841 230.678ZM107.2 231.952C107.236 232.176 107.254 232.399 107.272 232.623C107.272 232.399 107.236 232.176 107.2 231.952Z" fill="#0E5C1A"/>
<path d="M140.579 65.9319C140.857 65.0738 141.211 63.6357 140.415 61.1582C139.935 59.6475 138.886 56.2999 136.713 54.1487L140.996 46.6679C141.716 45.6286 142.626 43.6345 142.323 42.426C142.083 41.4592 141.262 40.6736 139.91 40.4803C138.545 40.2869 137.648 41.3021 136.94 42.426L132.24 50.4385C130.496 49.1212 129.043 48.4565 126.453 47.6952C120.021 45.9428 114.284 48.8795 113.337 49.4717L109.331 42.4743C108.801 41.3746 107.221 40.3957 105.958 40.4923C105.086 40.5648 104.29 41.157 103.696 42.281C103.089 43.4291 104.555 46.0395 105.187 47.1755L108.384 52.9644C108.384 52.9885 108.384 53.0127 108.371 53.0369C107.802 53.5928 100.246 61.2911 102.622 74.2707C102.634 74.307 102.596 74.3312 102.559 74.307C99.9936 72.2525 95.887 69.4608 90.2515 67.4426C83.7441 65.1101 72.9659 64.0587 65.4856 66.0407C63.0975 66.6691 44.2451 71.9383 41.3516 86.4165C39.9616 93.4018 42.931 99.1785 44.1188 101.402C52.3067 116.714 72.8143 118.624 73.6988 118.696C81.0401 119.276 87.181 117.572 89.089 117.029C94.5223 115.482 99.0585 113.052 103.102 110.877C105.705 109.475 107.828 108.194 109.306 107.264C112.642 104.931 117.886 101.221 124.241 96.556C138.975 85.7397 140.301 83.9873 145.823 81.5703C149.273 80.0596 160.544 74.9838 173.192 78.3556C175.858 79.0686 181.734 80.7001 186.371 85.7155C187.382 86.8032 189.075 88.6764 190.149 91.6011C190.414 92.3141 192.423 98.0546 189.732 103.735C186.232 111.131 177.273 113.161 173.078 114.056C168.807 114.974 164.397 115.119 160.038 114.672C157.107 114.37 153.67 113.935 149.879 113.294C138.709 111.409 136.296 109.765 130.433 108.883C126.857 108.339 108.737 106.079 95.3184 117.584C83.6178 127.615 82.9986 141.658 82.9607 143.145C82.9228 144.619 82.7712 160.717 96.4429 171.509C108.927 181.371 127.034 182.156 140.137 174.494C147.049 170.458 152.848 163.98 156.311 154.916C158.143 149.985 158.585 145.767 158.661 142.976C158.787 138.057 157.865 134.504 156.247 131.748C155.009 129.633 153.872 128.824 152.684 128.558C151.067 128.195 149.652 128.92 149.462 129.029C148.034 129.791 147.491 131.023 147.365 131.374C147.352 131.41 146.392 134.323 148.35 136.051C150.688 138.117 150.258 149.671 144.85 158.795C143.801 160.572 142.803 161.756 142.475 162.143C139.442 165.672 136.068 167.364 134.413 168.198C130.888 169.974 127.097 170.844 123.786 171.267C117.759 172.029 111.656 170.772 106.438 167.799C104.593 166.747 97.6307 162.735 94.118 154.565C88.2424 140.885 97.3274 128.05 98.0477 127.059C99.8293 124.944 103.064 121.681 108.068 119.325C109.811 118.503 112.895 117.234 117.292 116.714C130.799 115.119 142.942 121.959 157.625 123.349C166.141 124.147 173.407 123.458 178.537 122.624C180.647 122.286 182.681 121.669 184.577 120.715C188.506 118.745 194.71 114.587 198.059 106.865C198.526 105.777 198.905 104.714 199.209 103.662C199.209 103.662 200.295 99.8432 200.194 96.1693C199.979 88.9786 194.142 82.2229 193.51 81.5098C187.369 74.5608 179.459 72.3371 175.82 71.3703C159.507 67.0075 144.509 72.7601 138.848 76.2527C130.117 81.6428 123.357 86.4648 118.808 89.8729C113.728 93.6677 95.3816 107.65 85.273 109.971C81.6972 110.793 78.1086 110.938 78.1086 110.938C77.7548 110.938 73.8883 111.095 70.2114 110.442C68.4297 110.128 54.9222 107.747 50.3734 97.2812C49.8427 96.0485 48.3517 92.5316 49.0593 88.0963C50.2218 80.821 56.6786 74.6937 65.6499 71.9866C65.6499 71.9866 77.8812 67.4546 90.3147 73.0985C91.6793 73.7148 95.609 75.6122 97.1758 76.8933C97.3022 77.002 97.7697 77.3767 98.452 77.8117C98.7047 77.9688 99.7029 78.5731 100.777 78.9357C101.624 79.2136 103.759 79.9146 105.819 78.9236C107.499 78.1139 108.194 76.6274 108.409 76.1681C109.091 74.7179 109.003 73.3039 108.952 72.6392C108.914 72.1196 108.864 72.1558 108.763 71.2615C108.687 70.6572 108.561 69.5091 108.611 68.1072C108.674 66.3186 108.99 64.8805 109.23 63.829C109.281 63.6236 109.331 63.4061 109.357 63.2852C110.266 60.2155 112.528 57.9193 112.528 57.9193C112.528 57.9073 112.667 57.7864 112.793 57.6655C113.88 56.6262 117.405 53.5928 122.409 53.9433C126.263 54.2092 129.826 56.4208 131.646 59.3091C134.097 63.2006 132.442 66.8987 135.146 68.2885C136.233 68.8444 137.913 68.9774 139.101 68.2402C140.049 67.5997 140.364 66.5845 140.579 65.9319Z" fill="#0E5C1A"/>
<path d="M97.0998 178.386C98.7046 179.703 101.042 181.407 104.062 182.918C111.757 186.773 118.833 186.894 122.106 186.749C132.77 186.253 140.263 181.141 143.195 178.893C143.321 178.772 144.281 177.83 145.545 178.071C145.722 178.108 146.72 178.301 147.137 179.22C147.617 180.271 146.935 181.359 146.821 181.54C146.821 181.54 146.758 181.637 146.657 181.757C146.568 181.842 146.429 181.987 146.24 182.168C145.317 183.051 142.424 185.673 134.906 188.562C134.148 188.852 133.01 189.275 131.62 189.734C130.079 190.229 127.943 190.797 125.328 191.112C122.017 191.51 119.465 191.305 117.519 191.148C115.624 190.991 113.438 190.785 110.683 190.048C108.232 189.395 106.475 188.622 104.845 187.897C103.936 187.498 101.282 186.314 98.0728 184.211C93.4861 181.214 93.3091 180.041 93.3471 179.485C93.385 178.845 93.7514 178.144 94.3326 177.818C95.0908 177.346 96.2027 177.576 97.0998 178.386Z" fill="#0E5C1A"/>
<path d="M135.791 193.613C135.614 193.408 135.348 193.094 134.881 193.021C134.161 192.9 133.605 193.384 133.541 193.444C131.848 194.617 127.577 197.239 121.487 197.529C121.424 197.529 121.348 197.529 121.272 197.529C120.893 197.529 119.68 197.541 119.314 197.529C113.223 197.251 108.952 194.629 107.259 193.444C107.183 193.384 106.64 192.888 105.92 193.021C105.452 193.106 105.174 193.42 105.01 193.613C104.227 194.52 104.416 195.777 104.479 196.103C104.505 196.2 104.555 196.345 104.631 196.502C104.795 196.828 104.998 197.082 105.541 197.553C105.806 197.795 106.16 198.085 106.564 198.399C108.877 199.994 113.577 202.484 120.4 202.315C127.224 202.472 131.924 199.982 134.236 198.399C134.653 198.085 134.995 197.795 135.26 197.553C135.803 197.07 136.005 196.828 136.17 196.502C136.245 196.345 136.296 196.2 136.321 196.103C136.384 195.777 136.574 194.532 135.791 193.613Z" fill="#0E5C1A"/>
<path d="M104.972 45.7978C107.533 45.7978 109.609 43.812 109.609 41.3625C109.609 38.9129 107.533 36.9272 104.972 36.9272C102.411 36.9272 100.335 38.9129 100.335 41.3625C100.335 43.812 102.411 45.7978 104.972 45.7978Z" fill="#0E5C1A"/>
<path d="M139.871 45.7978C142.432 45.7978 144.508 43.812 144.508 41.3625C144.508 38.9129 142.432 36.9272 139.871 36.9272C137.31 36.9272 135.234 38.9129 135.234 41.3625C135.234 43.812 137.31 45.7978 139.871 45.7978Z" fill="#0E5C1A"/>
</g>
<defs>
<clipPath id="clip0_119_529">
<rect width="250.755" height="242.335" fill="white"/>
</clipPath>
</defs>
</svg>
