<svg width="47" height="47" viewBox="0 0 47 47" fill="none" xmlns="http://www.w3.org/2000/svg">
<path d="M2.94337 13.6638C3.01792 11.9625 3.74624 10.3557 4.97649 9.17823C6.20674 8.00079 7.84397 7.34363 9.54688 7.34375H37.4531C39.156 7.34363 40.7933 8.00079 42.0235 9.17823C43.2538 10.3557 43.9821 11.9625 44.0566 13.6638L41.8888 14.8682L23.5 24.769L5.11125 14.8682L2.94337 13.6638ZM2.9375 17.0199V33.0469C2.9375 34.7998 3.63384 36.4809 4.87334 37.7204C6.11284 38.9599 7.79396 39.6562 9.54688 39.6562H37.4531C39.206 39.6562 40.8872 38.9599 42.1267 37.7204C43.3662 36.4809 44.0625 34.7998 44.0625 33.0469V17.0199L43.2899 17.4502L24.1962 27.7315C23.9822 27.8467 23.743 27.9069 23.5 27.9069C23.257 27.9069 23.0178 27.8467 22.8038 27.7315L3.69244 17.4399L2.9375 17.0199Z" fill="white"/>
</svg>
