<svg width="118" height="50" viewBox="0 0 118 50" fill="none" xmlns="http://www.w3.org/2000/svg">
<path d="M3.25757 25.4782V30.0649H10.2847V25.4782C10.2847 24.8225 10.4338 24.3322 10.7292 24.0044C11.0245 23.6765 11.4156 23.514 11.8966 23.514C12.3861 23.514 12.7827 23.6765 13.0865 23.9988C13.3903 24.3238 13.5423 24.8169 13.5423 25.4782V38.0923C13.5423 38.7535 13.3875 39.2494 13.0809 39.5773C12.7743 39.9051 12.3804 40.0676 11.8966 40.0676C11.4071 40.0676 11.0161 39.9023 10.7235 39.5717C10.431 39.241 10.2847 38.7479 10.2847 38.0923V32.7098H3.25757V38.0923C3.25757 38.7535 3.10285 39.2494 2.79622 39.5773C2.48959 39.9051 2.09576 40.0676 1.61191 40.0676C1.12243 40.0676 0.731405 39.9023 0.438843 39.5717C0.146281 39.2382 0 38.7451 0 38.0923V25.4782C0 24.8225 0.143468 24.3322 0.433217 24.0044C0.720153 23.6765 1.11399 23.514 1.61191 23.514C2.10138 23.514 2.49803 23.6765 2.80185 23.9988C3.10566 24.321 3.25757 24.8169 3.25757 25.4782Z" fill="black"/>
<path d="M27.6303 26.2851H20.2965V30.2161H27.0508C27.5487 30.2161 27.9172 30.3282 28.1647 30.5495C28.4123 30.7709 28.5333 31.0651 28.5333 31.4293C28.5333 31.7936 28.4123 32.0906 28.1732 32.3203C27.9313 32.5501 27.5599 32.665 27.0536 32.665H20.2965V37.218H27.8834C28.3954 37.218 28.7808 37.3357 29.0396 37.5739C29.2984 37.8092 29.4278 38.1258 29.4278 38.5181C29.4278 38.8964 29.2984 39.2046 29.0396 39.4399C28.7808 39.6753 28.3954 39.7958 27.8834 39.7958H19.0334C18.3245 39.7958 17.8154 39.6389 17.5031 39.325C17.1909 39.0112 17.0361 38.5069 17.0361 37.8064V25.7723C17.0361 25.3072 17.1065 24.9261 17.2443 24.6319C17.3821 24.3377 17.6016 24.122 17.8969 23.9875C18.1923 23.853 18.5721 23.7858 19.0306 23.7858H27.6274C28.1479 23.7858 28.5333 23.9006 28.7836 24.1304C29.0368 24.3602 29.1606 24.66 29.1606 25.0326C29.1606 25.4109 29.034 25.7163 28.7836 25.9432C28.5333 26.1702 28.1479 26.2851 27.6303 26.2851Z" fill="black"/>
<path d="M36.3902 32.9478H35.2509V38.0921C35.2509 38.7701 35.1018 39.2689 34.8008 39.5883C34.4998 39.9077 34.1087 40.0702 33.6277 40.0702C33.1073 40.0702 32.7078 39.9021 32.4209 39.5687C32.1368 39.2353 31.9933 38.7421 31.9933 38.0949V25.7778C31.9933 25.0801 32.1508 24.573 32.4631 24.2592C32.7781 23.9454 33.2845 23.7885 33.9878 23.7885H39.282C40.0134 23.7885 40.6379 23.8193 41.1584 23.8809C41.676 23.9426 42.1458 24.0686 42.5621 24.2564C43.0656 24.4665 43.5129 24.7691 43.9011 25.1642C44.2893 25.5564 44.5819 26.0132 44.7844 26.5343C44.9842 27.0555 45.0854 27.6074 45.0854 28.1874C45.0854 29.381 44.7479 30.3337 44.0727 31.0481C43.3976 31.7626 42.3708 32.267 40.998 32.5668C41.5747 32.8722 42.1261 33.3233 42.6549 33.9201C43.181 34.5169 43.6508 35.1529 44.0643 35.8254C44.4778 36.4978 44.7985 37.1058 45.0292 37.6494C45.2599 38.193 45.3752 38.5656 45.3752 38.7701C45.3752 38.9803 45.3077 39.1904 45.1726 39.3978C45.0376 39.6051 44.852 39.7704 44.6185 39.8881C44.385 40.0086 44.1149 40.0674 43.8055 40.0674C43.4398 40.0674 43.1332 39.9806 42.8856 39.8096C42.638 39.6387 42.4243 39.423 42.2442 39.1596C42.0642 38.8962 41.8222 38.5124 41.5156 38.0024L40.2103 35.8394C39.7434 35.0464 39.3242 34.4412 38.9557 34.0266C38.5872 33.6119 38.213 33.3289 37.8305 33.1748C37.4451 33.0235 36.9668 32.9478 36.3902 32.9478ZM38.2524 26.2205H35.248V30.6223H38.1652C38.9473 30.6223 39.6055 30.555 40.1372 30.4205C40.6717 30.286 41.0796 30.0563 41.3609 29.7313C41.6422 29.4062 41.7829 28.9607 41.7829 28.3948C41.7829 27.9521 41.6703 27.5598 41.4425 27.2208C41.2146 26.8817 40.9024 26.6296 40.5001 26.4615C40.1203 26.3017 39.372 26.2205 38.2524 26.2205Z" fill="black"/>
<path d="M81.2648 39.7959H76.3531C75.6442 39.7959 75.1378 39.6362 74.834 39.3196C74.5302 39.0029 74.3783 38.4986 74.3783 37.8065V25.7724C74.3783 25.0663 74.533 24.5592 74.8425 24.2482C75.1519 23.94 75.6554 23.7831 76.3503 23.7831H81.5573C82.3253 23.7831 82.9892 23.8307 83.5518 23.926C84.1144 24.0212 84.618 24.2034 85.0653 24.4723C85.445 24.6993 85.7826 24.9851 86.0752 25.3297C86.3677 25.6744 86.59 26.0582 86.7447 26.4757C86.8994 26.8932 86.9753 27.3359 86.9753 27.8038C86.9753 29.4065 86.1708 30.5777 84.5645 31.3202C86.6772 31.9898 87.7321 33.2927 87.7321 35.2288C87.7321 36.1254 87.5014 36.9295 87.0401 37.6468C86.5787 38.3641 85.957 38.8937 85.175 39.2355C84.6855 39.44 84.1229 39.5829 83.4871 39.667C82.8542 39.7538 82.1115 39.7959 81.2648 39.7959ZM77.6331 26.2207V30.3591H80.6149C81.4251 30.3591 82.0524 30.2835 82.4941 30.1294C82.9357 29.9753 83.2733 29.6867 83.5068 29.2552C83.6897 28.9498 83.7797 28.6079 83.7797 28.2297C83.7797 27.4227 83.4899 26.8848 82.9132 26.6186C82.3365 26.3524 81.4561 26.2207 80.2717 26.2207H77.6331ZM81.0228 32.6847H77.6359V37.3582H81.1325C83.3324 37.3582 84.4323 36.5681 84.4323 34.9878C84.4323 34.1809 84.1482 33.5925 83.5771 33.2282C83.0061 32.8668 82.1537 32.6847 81.0228 32.6847Z" fill="black"/>
<path d="M101.142 26.2851H93.8085V30.2161H100.563C101.061 30.2161 101.429 30.3282 101.677 30.5495C101.921 30.7709 102.045 31.0651 102.045 31.4293C102.045 31.7936 101.924 32.0906 101.685 32.3203C101.443 32.5501 101.072 32.665 100.566 32.665H93.8113V37.218H101.398C101.91 37.218 102.296 37.3357 102.554 37.5739C102.813 37.8092 102.943 38.1258 102.943 38.5181C102.943 38.8964 102.813 39.2046 102.554 39.4399C102.296 39.6753 101.91 39.7958 101.398 39.7958H92.551C91.8421 39.7958 91.3329 39.6389 91.0207 39.325C90.7084 39.0112 90.5537 38.5069 90.5537 37.8064V25.7723C90.5537 25.3072 90.624 24.9261 90.7619 24.6319C90.8997 24.3377 91.1191 24.122 91.4145 23.9875C91.7099 23.853 92.0897 23.7858 92.5482 23.7858H101.145C101.665 23.7858 102.051 23.9006 102.301 24.1304C102.554 24.3602 102.678 24.66 102.678 25.0326C102.678 25.4109 102.552 25.7163 102.301 25.9432C102.045 26.1702 101.66 26.2851 101.142 26.2851Z" fill="black"/>
<path d="M116.119 26.2851H108.782V30.2161H115.537C116.035 30.2161 116.403 30.3282 116.651 30.5495C116.895 30.7709 117.019 31.0651 117.019 31.4293C117.019 31.7936 116.898 32.0906 116.659 32.3203C116.417 32.5501 116.046 32.665 115.54 32.665H108.782V37.218H116.369C116.881 37.218 117.267 37.3357 117.526 37.5739C117.784 37.8092 117.914 38.1258 117.914 38.5181C117.914 38.8964 117.784 39.2046 117.526 39.4399C117.267 39.6753 116.881 39.7958 116.369 39.7958H107.522C106.813 39.7958 106.304 39.6389 105.992 39.325C105.68 39.0112 105.525 38.5069 105.525 37.8064V25.7723C105.525 25.3072 105.595 24.9261 105.733 24.6319C105.871 24.3377 106.09 24.122 106.386 23.9875C106.681 23.853 107.061 23.7858 107.519 23.7858H116.116C116.637 23.7858 117.022 23.9006 117.272 24.1304C117.526 24.3602 117.649 24.66 117.649 25.0326C117.649 25.4109 117.523 25.7163 117.272 25.9432C117.022 26.1702 116.637 26.2851 116.119 26.2851Z" fill="black"/>
<path d="M63.7676 8.73903C63.8481 8.47972 63.9501 8.04664 63.7219 7.30078C63.5824 6.84631 63.2791 5.83579 62.6483 5.18884L63.8884 2.93789C64.0977 2.62511 64.3581 2.02361 64.2722 1.66004C64.2024 1.36865 63.9662 1.13339 63.5743 1.07458C63.1798 1.01577 62.9194 1.32053 62.7154 1.66271L61.3546 4.07406C60.8527 3.67573 60.4313 3.47791 59.6798 3.248C57.8171 2.72135 56.161 3.60623 55.8846 3.78267L54.7251 1.67341C54.5721 1.34191 54.1158 1.04785 53.7508 1.07725C53.4985 1.09864 53.2703 1.27508 53.0985 1.61459C52.9241 1.96213 53.3455 2.74809 53.528 3.09027L54.4513 4.83329C54.4513 4.84131 54.4486 4.84666 54.4486 4.85735C54.2849 5.02577 52.1001 7.34623 52.7845 11.2546C52.7872 11.2653 52.7765 11.2734 52.7657 11.268C52.0249 10.6505 50.8359 9.80837 49.2067 9.20152C47.3252 8.50111 44.2037 8.18298 42.043 8.77913C41.3532 8.96894 35.8966 10.5569 35.0618 14.9144C34.6592 17.0184 35.5181 18.7587 35.8617 19.4297C38.2317 24.0412 44.1607 24.616 44.4184 24.6374C46.5415 24.8111 48.3183 24.3005 48.8685 24.1348C50.4413 23.6669 51.7512 22.9371 52.9214 22.2822C53.6756 21.8598 54.2876 21.4748 54.717 21.1941C55.6833 20.491 57.1971 19.3762 59.0356 17.9701C63.2979 14.7113 63.679 14.1846 65.2787 13.4548C66.2771 13.0003 69.5382 11.4712 73.1966 12.4844C73.9669 12.6982 75.6686 13.1928 77.0079 14.7006C77.3005 15.0294 77.7889 15.5908 78.1003 16.473C78.1754 16.6895 78.7579 18.4165 77.9795 20.1274C76.9676 22.3543 74.3775 22.9665 73.1617 23.2365C71.9243 23.5119 70.6521 23.5547 69.3906 23.421C68.5425 23.3301 67.5494 23.1991 66.4516 23.0066C63.2227 22.4399 62.5222 21.9426 60.8259 21.6753C59.7898 21.5122 54.5506 20.8305 50.6695 24.2952C47.2849 27.316 47.1051 31.5453 47.0944 31.9944C47.0836 32.4382 47.038 37.2876 50.9943 40.5384C54.607 43.5084 59.8435 43.7437 63.6334 41.4393C65.6303 40.2229 67.3105 38.2741 68.3116 35.5419C68.8431 34.0555 68.9692 32.7857 68.9907 31.9463C69.0283 30.4626 68.7599 29.3932 68.2955 28.5645C67.9386 27.9282 67.6057 27.685 67.2649 27.6048C66.7978 27.4952 66.3899 27.7144 66.3308 27.7465C65.9175 27.9764 65.7618 28.348 65.7215 28.4522C65.7189 28.4629 65.4424 29.3424 66.0061 29.8637C66.6797 30.4893 66.5563 33.9673 64.9942 36.7155C64.6909 37.2502 64.401 37.6084 64.3071 37.7233C63.4294 38.7847 62.4524 39.2979 61.9746 39.5466C60.9547 40.0812 59.8569 40.3459 58.8987 40.4715C57.1568 40.6988 55.388 40.3245 53.8796 39.4263C53.3455 39.1081 51.3298 37.9025 50.3152 35.4403C48.6135 31.3207 51.2439 27.4524 51.4532 27.153C51.9686 26.5167 52.9026 25.5329 54.352 24.8245C54.8593 24.5786 55.7477 24.1936 57.0199 24.0359C60.9279 23.5547 64.4386 25.6158 68.6874 26.0328C71.1513 26.2761 73.2529 26.0649 74.7345 25.8163C75.3438 25.712 75.9343 25.5276 76.4818 25.2415C77.6199 24.6481 79.4128 23.3969 80.3817 21.0685C80.5186 20.7423 80.626 20.4188 80.7119 20.1034C80.7119 20.1034 81.0259 18.9512 80.9964 17.8444C80.9346 15.6763 79.2464 13.6446 79.0639 13.4281C77.287 11.3348 75.0002 10.6638 73.9481 10.3724C69.2296 9.05716 64.8922 10.7895 63.2549 11.8455C60.7292 13.4708 58.7726 14.9225 57.4574 15.9463C55.9866 17.0905 50.6829 21.301 47.7546 22.0015C46.7213 22.2501 45.6799 22.2928 45.6799 22.2928C45.5752 22.2928 44.4586 22.3383 43.3958 22.1431C42.8804 22.0496 38.9752 21.3331 37.6546 18.1786C37.4989 17.8097 37.0722 16.7457 37.2762 15.409C37.6117 13.2195 39.4824 11.3696 42.0752 10.5569C42.0752 10.5569 45.6128 9.19083 49.2094 10.8911C49.6066 11.0782 50.7393 11.6503 51.1929 12.0326C51.2305 12.0647 51.3647 12.1796 51.5633 12.3079C51.6357 12.3534 51.9229 12.5378 52.237 12.6448C52.4812 12.7277 53.0985 12.9415 53.6944 12.6421C54.1802 12.3988 54.3815 11.9497 54.4432 11.8134C54.6419 11.3749 54.615 10.9499 54.6016 10.7494C54.5909 10.5943 54.5774 10.6023 54.5479 10.3323C54.5264 10.1479 54.4916 9.80569 54.505 9.38331C54.5238 8.84329 54.615 8.41021 54.6848 8.09476C54.6982 8.0306 54.7116 7.96644 54.7224 7.93169C54.9854 7.00671 55.6403 6.31699 55.6403 6.31699C55.643 6.31432 55.6806 6.27689 55.7155 6.23946C56.0295 5.92668 57.0494 5.0124 58.4961 5.11934C59.6127 5.19954 60.6434 5.8652 61.1694 6.73403C61.878 7.90763 61.4003 9.01973 62.1813 9.43945C62.4953 9.60787 62.9838 9.64797 63.3274 9.42608C63.6119 9.23895 63.7058 8.93151 63.7676 8.73903Z" fill="black"/>
<path d="M51.1929 42.613C51.6572 43.0113 52.3309 43.5219 53.2086 43.979C55.4336 45.1393 57.4816 45.1767 58.4263 45.1313C61.5103 44.9842 63.679 43.4417 64.5271 42.7627C64.562 42.7252 64.8412 42.4445 65.2062 42.5141C65.2572 42.5247 65.5471 42.5836 65.6679 42.8589C65.8074 43.1744 65.6115 43.5059 65.5793 43.5567C65.5793 43.5567 65.5632 43.5834 65.531 43.6235C65.5068 43.6502 65.4639 43.693 65.4102 43.7465C65.1445 44.0111 64.3044 44.8024 62.1303 45.6713C61.9102 45.7595 61.5828 45.8851 61.1775 46.0215C60.7319 46.1712 60.1119 46.3423 59.3577 46.4358C58.3995 46.5561 57.6641 46.4947 57.1004 46.4465C56.5529 46.3984 55.9221 46.3369 55.1223 46.115C54.4137 45.9172 53.9037 45.6846 53.4314 45.4681C53.1656 45.3451 52.4007 44.9922 51.472 44.3587C50.1461 43.4551 50.0951 43.1022 50.1032 42.9338C50.1139 42.7386 50.2213 42.5301 50.3877 42.4285C50.6104 42.3002 50.9298 42.3697 51.1929 42.613Z" fill="black"/>
<path d="M62.3826 47.2004C62.3316 47.139 62.2538 47.0454 62.1196 47.0213C61.9102 46.9839 61.7519 47.1309 61.7304 47.1497C61.2392 47.5025 60.0046 48.2938 58.2411 48.3794C58.225 48.3794 58.2009 48.3794 58.1794 48.3821C58.0721 48.3821 57.7204 48.3847 57.6131 48.3794C55.8524 48.2938 54.615 47.5052 54.1238 47.1497C54.1024 47.1309 53.944 46.9839 53.7347 47.0213C53.6005 47.0454 53.5199 47.1416 53.4716 47.2004C53.2435 47.4758 53.2998 47.8501 53.316 47.949C53.324 47.9784 53.3374 48.0212 53.3616 48.0693C53.4072 48.1682 53.4689 48.243 53.6246 48.3874C53.7025 48.4596 53.8018 48.5478 53.9225 48.644C54.5909 49.1226 55.9517 49.8738 57.9244 49.823C59.8972 49.8711 61.258 49.1226 61.9263 48.644C62.0471 48.5478 62.1464 48.4596 62.2243 48.3874C62.3799 48.243 62.4417 48.1682 62.4873 48.0693C62.5114 48.0212 62.5249 47.9784 62.5329 47.949C62.5544 47.8501 62.6108 47.4758 62.3826 47.2004Z" fill="black"/>
<path d="M53.4663 2.67334C54.2075 2.67334 54.8083 2.07489 54.8083 1.33667C54.8083 0.598447 54.2075 0 53.4663 0C52.7251 0 52.1243 0.598447 52.1243 1.33667C52.1243 2.07489 52.7251 2.67334 53.4663 2.67334Z" fill="black"/>
<path d="M63.5609 2.67334C64.3021 2.67334 64.9029 2.07489 64.9029 1.33667C64.9029 0.598447 64.3021 0 63.5609 0C62.8197 0 62.2189 0.598447 62.2189 1.33667C62.2189 2.07489 62.8197 2.67334 63.5609 2.67334Z" fill="black"/>
</svg>
