<svg width="62" height="62" viewBox="0 0 62 62" fill="none" xmlns="http://www.w3.org/2000/svg">
<path d="M42.7697 33.3405L41.5943 34.5108C41.5943 34.5108 38.7966 37.2904 31.1628 29.7006C23.5291 22.1108 26.3268 19.3311 26.3268 19.3311L27.0656 18.5923C28.8921 16.7788 29.0651 13.8648 27.4712 11.7361L24.2162 7.38836C22.2426 4.75336 18.4321 4.40461 16.1717 6.65211L12.1159 10.6821C10.9973 11.7981 10.2481 13.2396 10.3386 14.8413C10.5711 18.941 12.4259 27.7579 22.7696 38.0448C33.741 48.9516 44.0356 49.3856 48.2438 48.9929C49.5768 48.8689 50.7341 48.1921 51.6667 47.2621L55.3351 43.6144C57.8151 41.1525 57.1176 36.9288 53.9452 35.2057L49.0111 32.5216C46.9289 31.3901 44.3972 31.7234 42.7697 33.3405Z" fill="white"/>
</svg>
