<svg width="118" height="50" viewBox="0 0 118 50" fill="none" xmlns="http://www.w3.org/2000/svg">
<path d="M3.25757 25.4782V30.0649H10.2847V25.4782C10.2847 24.8225 10.4338 24.3322 10.7292 24.0044C11.0245 23.6765 11.4156 23.514 11.8966 23.514C12.3861 23.514 12.7827 23.6765 13.0865 23.9988C13.3903 24.3238 13.5423 24.8169 13.5423 25.4782V38.0923C13.5423 38.7535 13.3875 39.2494 13.0809 39.5773C12.7743 39.9051 12.3804 40.0676 11.8966 40.0676C11.4071 40.0676 11.0161 39.9023 10.7235 39.5717C10.431 39.241 10.2847 38.7479 10.2847 38.0923V32.7098H3.25757V38.0923C3.25757 38.7535 3.10285 39.2494 2.79622 39.5773C2.48959 39.9051 2.09576 40.0676 1.61191 40.0676C1.12243 40.0676 0.731405 39.9023 0.438843 39.5717C0.146281 39.2382 0 38.7451 0 38.0923V25.4782C0 24.8225 0.143468 24.3322 0.433217 24.0044C0.720153 23.6765 1.11399 23.514 1.61191 23.514C2.10138 23.514 2.49803 23.6765 2.80185 23.9988C3.10566 24.321 3.25757 24.8169 3.25757 25.4782Z" fill="black"/>
<path d="M27.6303 26.2851H20.2965V30.2161H27.0508C27.5487 30.2161 27.9172 30.3282 28.1647 30.5495C28.4123 30.7709 28.5333 31.0651 28.5333 31.4293C28.5333 31.7936 28.4123 32.0906 28.1732 32.3203C27.9313 32.5501 27.5599 32.665 27.0536 32.665H20.2965V37.218H27.8834C28.3954 37.218 28.7808 37.3357 29.0396 37.5739C29.2984 37.8092 29.4278 38.1258 29.4278 38.5181C29.4278 38.8964 29.2984 39.2046 29.0396 39.4399C28.7808 39.6753 28.3954 39.7958 27.8834 39.7958H19.0334C18.3245 39.7958 17.8154 39.6389 17.5031 39.325C17.1909 39.0112 17.0361 38.5069 17.0361 37.8064V25.7723C17.0361 25.3072 17.1065 24.9261 17.2443 24.6319C17.3821 24.3377 17.6016 24.122 17.8969 23.9875C18.1923 23.853 18.5721 23.7858 19.0306 23.7858H27.6274C28.1479 23.7858 28.5333 23.9006 28.7836 24.1304C29.0368 24.3602 29.1606 24.66 29.1606 25.0326C29.1606 25.4109 29.034 25.7163 28.7836 25.9432C28.5333 26.1702 28.1479 26.2851 27.6303 26.2851Z" fill="black"/>
<path d="M36.39 32.9478H35.2507V38.0921C35.2507 38.7701 35.1016 39.2689 34.8006 39.5883C34.4996 39.9077 34.1086 40.0702 33.6276 40.0702C33.1072 40.0702 32.7077 39.9021 32.4208 39.5687C32.1366 39.2353 31.9932 38.7421 31.9932 38.0949V25.7778C31.9932 25.0801 32.1507 24.573 32.463 24.2592C32.778 23.9454 33.2844 23.7885 33.9876 23.7885H39.2819C40.0133 23.7885 40.6378 23.8193 41.1582 23.8809C41.6758 23.9426 42.1456 24.0686 42.562 24.2564C43.0655 24.4665 43.5128 24.7691 43.901 25.1642C44.2892 25.5564 44.5818 26.0132 44.7843 26.5343C44.984 27.0555 45.0853 27.6074 45.0853 28.1874C45.0853 29.381 44.7477 30.3337 44.0726 31.0481C43.3975 31.7626 42.3707 32.267 40.9979 32.5668C41.5746 32.8722 42.1259 33.3233 42.6548 33.9201C43.1809 34.5169 43.6506 35.1529 44.0642 35.8254C44.4777 36.4978 44.7984 37.1058 45.0291 37.6494C45.2597 38.193 45.3751 38.5656 45.3751 38.7701C45.3751 38.9803 45.3076 39.1904 45.1725 39.3978C45.0375 39.6051 44.8518 39.7704 44.6183 39.8881C44.3849 40.0086 44.1148 40.0674 43.8054 40.0674C43.4397 40.0674 43.133 39.9806 42.8855 39.8096C42.6379 39.6387 42.4241 39.423 42.2441 39.1596C42.0641 38.8962 41.8221 38.5124 41.5155 38.0024L40.2102 35.8394C39.7432 35.0464 39.3241 34.4412 38.9556 34.0266C38.5871 33.6119 38.2129 33.3289 37.8303 33.1748C37.4449 33.0235 36.9667 32.9478 36.39 32.9478ZM38.2523 26.2205H35.2479V30.6223H38.1651C38.9471 30.6223 39.6054 30.555 40.1371 30.4205C40.6716 30.286 41.0795 30.0563 41.3608 29.7313C41.6421 29.4062 41.7827 28.9607 41.7827 28.3948C41.7827 27.9521 41.6702 27.5598 41.4424 27.2208C41.2145 26.8817 40.9022 26.6296 40.5 26.4615C40.1202 26.3017 39.3719 26.2205 38.2523 26.2205Z" fill="black"/>
<path d="M81.2649 39.7959H76.3532C75.6443 39.7959 75.138 39.6362 74.8341 39.3196C74.5303 39.0029 74.3784 38.4986 74.3784 37.8065V25.7724C74.3784 25.0663 74.5331 24.5592 74.8426 24.2482C75.152 23.94 75.6556 23.7831 76.3504 23.7831H81.5574C82.3254 23.7831 82.9893 23.8307 83.5519 23.926C84.1146 24.0212 84.6181 24.2034 85.0654 24.4723C85.4452 24.6993 85.7827 24.9851 86.0753 25.3297C86.3678 25.6744 86.5901 26.0582 86.7448 26.4757C86.8995 26.8932 86.9755 27.3359 86.9755 27.8038C86.9755 29.4065 86.1709 30.5777 84.5646 31.3202C86.6773 31.9898 87.7322 33.2927 87.7322 35.2288C87.7322 36.1254 87.5015 36.9295 87.0402 37.6468C86.5788 38.3641 85.9571 38.8937 85.1751 39.2355C84.6856 39.44 84.123 39.5829 83.4872 39.667C82.8543 39.7538 82.1116 39.7959 81.2649 39.7959ZM77.6332 26.2207V30.3591H80.6151C81.4252 30.3591 82.0526 30.2835 82.4942 30.1294C82.9359 29.9753 83.2734 29.6867 83.5069 29.2552C83.6898 28.9498 83.7798 28.6079 83.7798 28.2297C83.7798 27.4227 83.49 26.8848 82.9134 26.6186C82.3367 26.3524 81.4562 26.2207 80.2719 26.2207H77.6332ZM81.023 32.6847H77.636V37.3582H81.1327C83.3325 37.3582 84.4324 36.5681 84.4324 34.9878C84.4324 34.1809 84.1483 33.5925 83.5773 33.2282C83.0062 32.8668 82.1538 32.6847 81.023 32.6847Z" fill="black"/>
<path d="M101.142 26.2851H93.8085V30.2161H100.563C101.061 30.2161 101.429 30.3282 101.677 30.5495C101.921 30.7709 102.045 31.0651 102.045 31.4293C102.045 31.7936 101.924 32.0906 101.685 32.3203C101.443 32.5501 101.072 32.665 100.566 32.665H93.8113V37.218H101.398C101.91 37.218 102.296 37.3357 102.554 37.5739C102.813 37.8092 102.943 38.1258 102.943 38.5181C102.943 38.8964 102.813 39.2046 102.554 39.4399C102.296 39.6753 101.91 39.7958 101.398 39.7958H92.551C91.8421 39.7958 91.3329 39.6389 91.0207 39.325C90.7084 39.0112 90.5537 38.5069 90.5537 37.8064V25.7723C90.5537 25.3072 90.624 24.9261 90.7619 24.6319C90.8997 24.3377 91.1191 24.122 91.4145 23.9875C91.7099 23.853 92.0897 23.7858 92.5482 23.7858H101.145C101.665 23.7858 102.051 23.9006 102.301 24.1304C102.554 24.3602 102.678 24.66 102.678 25.0326C102.678 25.4109 102.552 25.7163 102.301 25.9432C102.045 26.1702 101.66 26.2851 101.142 26.2851Z" fill="black"/>
<path d="M116.119 26.2851H108.782V30.2161H115.537C116.035 30.2161 116.403 30.3282 116.651 30.5495C116.895 30.7709 117.019 31.0651 117.019 31.4293C117.019 31.7936 116.898 32.0906 116.659 32.3203C116.417 32.5501 116.046 32.665 115.54 32.665H108.782V37.218H116.369C116.881 37.218 117.267 37.3357 117.526 37.5739C117.784 37.8092 117.914 38.1258 117.914 38.5181C117.914 38.8964 117.784 39.2046 117.526 39.4399C117.267 39.6753 116.881 39.7958 116.369 39.7958H107.522C106.813 39.7958 106.304 39.6389 105.992 39.325C105.68 39.0112 105.525 38.5069 105.525 37.8064V25.7723C105.525 25.3072 105.595 24.9261 105.733 24.6319C105.871 24.3377 106.09 24.122 106.386 23.9875C106.681 23.853 107.061 23.7858 107.519 23.7858H116.116C116.637 23.7858 117.022 23.9006 117.272 24.1304C117.526 24.3602 117.649 24.66 117.649 25.0326C117.649 25.4109 117.523 25.7163 117.272 25.9432C117.022 26.1702 116.637 26.2851 116.119 26.2851Z" fill="black"/>
<path d="M63.7677 8.73903C63.8482 8.47972 63.9502 8.04664 63.7221 7.30078C63.5825 6.84631 63.2792 5.83579 62.6484 5.18884L63.8885 2.93789C64.0978 2.62511 64.3582 2.02361 64.2723 1.66004C64.2025 1.36865 63.9663 1.13339 63.5744 1.07458C63.1799 1.01577 62.9195 1.32053 62.7155 1.66271L61.3547 4.07406C60.8528 3.67573 60.4314 3.47791 59.6799 3.248C57.8172 2.72135 56.1611 3.60623 55.8847 3.78267L54.7252 1.67341C54.5722 1.34191 54.1159 1.04785 53.7509 1.07725C53.4986 1.09864 53.2704 1.27508 53.0987 1.61459C52.9242 1.96213 53.3456 2.74809 53.5281 3.09027L54.4514 4.83329C54.4514 4.84131 54.4487 4.84666 54.4487 4.85735C54.285 5.02577 52.1002 7.34623 52.7846 11.2546C52.7873 11.2653 52.7766 11.2734 52.7658 11.268C52.0251 10.6505 50.836 9.80837 49.2068 9.20152C47.3253 8.50111 44.2038 8.18298 42.0431 8.77913C41.3533 8.96894 35.8967 10.5569 35.062 14.9144C34.6594 17.0184 35.5183 18.7587 35.8618 19.4297C38.2318 24.0412 44.1608 24.616 44.4185 24.6374C46.5416 24.8111 48.3184 24.3005 48.8686 24.1348C50.4415 23.6669 51.7513 22.9371 52.9215 22.2822C53.6757 21.8598 54.2877 21.4748 54.7171 21.1941C55.6834 20.491 57.1972 19.3762 59.0357 17.9701C63.298 14.7113 63.6791 14.1846 65.2788 13.4548C66.2773 13.0003 69.5384 11.4712 73.1967 12.4844C73.967 12.6982 75.6687 13.1928 77.008 14.7006C77.3006 15.0294 77.7891 15.5908 78.1004 16.473C78.1756 16.6895 78.758 18.4165 77.9796 20.1274C76.9678 22.3543 74.3777 22.9665 73.1618 23.2365C71.9245 23.5119 70.6522 23.5547 69.3907 23.421C68.5426 23.3301 67.5495 23.1991 66.4517 23.0066C63.2228 22.4399 62.5223 21.9426 60.826 21.6753C59.79 21.5122 54.5507 20.8305 50.6696 24.2952C47.2851 27.316 47.1052 31.5453 47.0945 31.9944C47.0837 32.4382 47.0381 37.2876 50.9944 40.5384C54.6071 43.5084 59.8436 43.7437 63.6335 41.4393C65.6304 40.2229 67.3106 38.2741 68.3118 35.5419C68.8432 34.0555 68.9693 32.7857 68.9908 31.9463C69.0284 30.4626 68.76 29.3932 68.2957 28.5645C67.9387 27.9282 67.6059 27.685 67.265 27.6048C66.798 27.4952 66.39 27.7144 66.3309 27.7465C65.9176 27.9764 65.7619 28.348 65.7217 28.4522C65.719 28.4629 65.4425 29.3424 66.0062 29.8637C66.6799 30.4893 66.5564 33.9673 64.9943 36.7155C64.691 37.2502 64.4011 37.6084 64.3072 37.7233C63.4295 38.7847 62.4525 39.2979 61.9748 39.5466C60.9548 40.0812 59.8571 40.3459 58.8989 40.4715C57.1569 40.6988 55.3881 40.3245 53.8797 39.4263C53.3456 39.1081 51.3299 37.9025 50.3153 35.4403C48.6136 31.3207 51.244 27.4524 51.4534 27.153C51.9687 26.5167 52.9027 25.5329 54.3521 24.8245C54.8594 24.5786 55.7478 24.1936 57.02 24.0359C60.928 23.5547 64.4387 25.6158 68.6875 26.0328C71.1515 26.2761 73.2531 26.0649 74.7346 25.8163C75.3439 25.712 75.9344 25.5276 76.4819 25.2415C77.62 24.6481 79.4129 23.3969 80.3818 21.0685C80.5187 20.7423 80.6261 20.4188 80.712 20.1034C80.712 20.1034 81.026 18.9512 80.9965 17.8444C80.9348 15.6763 79.2465 13.6446 79.064 13.4281C77.2872 11.3348 75.0004 10.6638 73.9482 10.3724C69.2297 9.05716 64.8923 10.7895 63.255 11.8455C60.7294 13.4708 58.7727 14.9225 57.4575 15.9463C55.9867 17.0905 50.683 21.301 47.7548 22.0015C46.7214 22.2501 45.68 22.2928 45.68 22.2928C45.5753 22.2928 44.4588 22.3383 43.3959 22.1431C42.8806 22.0496 38.9753 21.3331 37.6547 18.1786C37.4991 17.8097 37.0723 16.7457 37.2763 15.409C37.6118 13.2195 39.4826 11.3696 42.0753 10.5569C42.0753 10.5569 45.6129 9.19083 49.2095 10.8911C49.6067 11.0782 50.7394 11.6503 51.193 12.0326C51.2306 12.0647 51.3648 12.1796 51.5634 12.3079C51.6359 12.3534 51.9231 12.5378 52.2371 12.6448C52.4813 12.7277 53.0987 12.9415 53.6945 12.6421C54.1803 12.3988 54.3816 11.9497 54.4434 11.8134C54.642 11.3749 54.6151 10.9499 54.6017 10.7494C54.591 10.5943 54.5776 10.6023 54.548 10.3323C54.5266 10.1479 54.4917 9.80569 54.5051 9.38331C54.5239 8.84329 54.6151 8.41021 54.6849 8.09476C54.6983 8.0306 54.7118 7.96644 54.7225 7.93169C54.9855 7.00671 55.6404 6.31699 55.6404 6.31699C55.6431 6.31432 55.6807 6.27689 55.7156 6.23946C56.0296 5.92668 57.0496 5.0124 58.4963 5.11934C59.6128 5.19954 60.6435 5.8652 61.1695 6.73403C61.8781 7.90763 61.4004 9.01973 62.1814 9.43945C62.4955 9.60787 62.984 9.64797 63.3275 9.42608C63.612 9.23895 63.706 8.93151 63.7677 8.73903Z" fill="black"/>
<path d="M51.1929 42.613C51.6572 43.0113 52.3309 43.5219 53.2086 43.979C55.4336 45.1393 57.4816 45.1767 58.4263 45.1313C61.5103 44.9842 63.679 43.4417 64.5271 42.7627C64.562 42.7252 64.8412 42.4445 65.2062 42.5141C65.2572 42.5247 65.5471 42.5836 65.6679 42.8589C65.8074 43.1744 65.6115 43.5059 65.5793 43.5567C65.5793 43.5567 65.5632 43.5834 65.531 43.6235C65.5068 43.6502 65.4639 43.693 65.4102 43.7465C65.1445 44.0111 64.3044 44.8024 62.1303 45.6713C61.9102 45.7595 61.5828 45.8851 61.1775 46.0215C60.7319 46.1712 60.1119 46.3423 59.3577 46.4358C58.3995 46.5561 57.6641 46.4947 57.1004 46.4465C56.5529 46.3984 55.9221 46.3369 55.1223 46.115C54.4137 45.9172 53.9037 45.6846 53.4314 45.4681C53.1656 45.3451 52.4007 44.9922 51.472 44.3587C50.1461 43.4551 50.0951 43.1022 50.1032 42.9338C50.1139 42.7386 50.2213 42.5301 50.3877 42.4285C50.6104 42.3002 50.9298 42.3697 51.1929 42.613Z" fill="black"/>
<path d="M62.3827 47.2004C62.3317 47.139 62.2539 47.0454 62.1197 47.0213C61.9103 46.9839 61.752 47.1309 61.7305 47.1497C61.2393 47.5025 60.0047 48.2938 58.2413 48.3794C58.2252 48.3794 58.201 48.3794 58.1795 48.3821C58.0722 48.3821 57.7206 48.3847 57.6132 48.3794C55.8525 48.2938 54.6151 47.5052 54.124 47.1497C54.1025 47.1309 53.9441 46.9839 53.7348 47.0213C53.6006 47.0454 53.5201 47.1416 53.4717 47.2004C53.2436 47.4758 53.3 47.8501 53.3161 47.949C53.3241 47.9784 53.3375 48.0212 53.3617 48.0693C53.4073 48.1682 53.4691 48.243 53.6247 48.3874C53.7026 48.4596 53.8019 48.5478 53.9227 48.644C54.591 49.1226 55.9518 49.8738 57.9246 49.823C59.8973 49.8711 61.2581 49.1226 61.9264 48.644C62.0472 48.5478 62.1465 48.4596 62.2244 48.3874C62.38 48.243 62.4418 48.1682 62.4874 48.0693C62.5116 48.0212 62.525 47.9784 62.533 47.949C62.5545 47.8501 62.6109 47.4758 62.3827 47.2004Z" fill="black"/>
<path d="M53.4663 2.67334C54.2075 2.67334 54.8083 2.07489 54.8083 1.33667C54.8083 0.598447 54.2075 0 53.4663 0C52.7251 0 52.1243 0.598447 52.1243 1.33667C52.1243 2.07489 52.7251 2.67334 53.4663 2.67334Z" fill="black"/>
<path d="M63.561 2.67334C64.3022 2.67334 64.903 2.07489 64.903 1.33667C64.903 0.598447 64.3022 0 63.561 0C62.8198 0 62.219 0.598447 62.219 1.33667C62.219 2.07489 62.8198 2.67334 63.561 2.67334Z" fill="black"/>
</svg>
