<svg width="31" height="69" viewBox="0 0 31 69" fill="none" xmlns="http://www.w3.org/2000/svg">
<path d="M24.8387 39.1361V9.88255C24.8191 7.25479 23.8371 4.73802 22.1003 2.86389C21.1511 1.86618 20.0106 1.09664 18.7563 0.607465C17.502 0.118295 16.1632 -0.079064 14.8307 0.0287737C12.4184 0.279268 10.1844 1.48727 8.57635 3.41075C6.96829 5.33423 6.10492 7.83112 6.15921 10.4012L6.19181 39.029C3.80495 40.9303 1.9865 43.5222 0.954945 46.4931C-0.0766102 49.4641 -0.277387 52.6878 0.376738 55.7768C1.03086 58.8659 2.51206 61.6889 4.64237 63.9067C6.77268 66.1246 9.46148 67.6428 12.3857 68.2791C13.4066 68.4854 14.4434 68.5896 15.4826 68.5903C19.5927 68.5912 23.5352 66.8623 26.4445 63.7832C29.3538 60.7041 30.9922 56.5264 31 52.1673C31.0048 49.6356 30.45 47.138 29.38 44.8749C28.31 42.6118 26.7546 40.6463 24.8387 39.1361ZM23.2739 62.1629C21.8581 63.3922 20.2021 64.2719 18.426 64.7384C16.6499 65.2048 14.7982 65.2463 13.0051 64.8597C10.6254 64.357 8.44395 63.1049 6.74574 61.2667C5.04752 59.4286 3.9115 57.09 3.48606 54.5564C3.06227 52.1803 3.27434 49.7259 4.09825 47.471C4.92215 45.2162 6.32496 43.2511 8.14778 41.7984C8.54056 41.4903 8.86005 41.0892 9.08078 40.627C9.30152 40.1648 9.41739 39.6543 9.41915 39.1361V10.4012C9.3816 8.71156 9.93826 7.0676 10.9808 5.78938C12.0233 4.51116 13.477 3.69016 15.0589 3.48624C15.2094 3.45754 15.3624 3.44595 15.5152 3.45166C17.1186 3.46789 18.652 4.15063 19.7859 5.35316C20.9197 6.55568 21.5634 8.182 21.5787 9.88255V39.1361C21.5805 39.6543 21.6964 40.1648 21.9171 40.627C22.1378 41.0892 22.4573 41.4903 22.8501 41.7984C24.3316 42.9743 25.5415 44.4923 26.3881 46.2374C27.2347 47.9826 27.6959 49.9091 27.7367 51.8712C27.7776 53.8333 27.397 55.7795 26.6238 57.5626C25.8506 59.3456 24.7051 60.9188 23.2739 62.1629Z" fill="#FFC700"/>
<path d="M20.6666 51.5392C20.6666 53.3052 20.0728 54.9988 19.0158 56.2476C17.9588 57.4963 16.5252 58.1978 15.0303 58.1978C13.5355 58.1978 12.1019 57.4963 11.0449 56.2476C9.98786 54.9988 9.39403 53.3052 9.39403 51.5392C9.38614 50.083 9.78949 48.6652 10.5403 47.5103C11.291 46.3553 12.3464 45.5291 13.5393 45.1623V10.0756C13.5393 9.60845 13.6964 9.16039 13.976 8.83004C14.2556 8.49968 14.6349 8.31409 15.0303 8.31409C15.4258 8.31409 15.8051 8.49968 16.0847 8.83004C16.3643 9.16039 16.5214 9.60845 16.5214 10.0756V45.1658C17.711 45.5385 18.7628 46.3658 19.5126 47.5187C20.2625 48.6716 20.6682 50.0852 20.6666 51.5392Z" fill="#FFC700"/>
</svg>
