<svg width="416" height="185" viewBox="0 0 416 185" fill="none" xmlns="http://www.w3.org/2000/svg">
<path d="M11.4867 99.3374V115.563H36.2844V99.3374C36.2844 97.0156 36.8114 95.2742 37.852 94.1268C38.8925 92.9659 40.2709 92.3855 41.9737 92.3855C43.7034 92.3855 45.0953 92.9524 46.1764 94.0998C47.244 95.2472 47.7846 96.9886 47.7846 99.3374V143.964C47.7846 146.313 47.244 148.054 46.1629 149.215C45.0818 150.376 43.6899 150.957 41.9872 150.957C40.2574 150.957 38.879 150.376 37.852 149.202C36.8249 148.027 36.3114 146.286 36.3114 143.964V124.904H11.4867V143.951C11.4867 146.3 10.9461 148.041 9.86503 149.202C8.78393 150.363 7.39201 150.943 5.68928 150.943C3.95952 150.943 2.58112 150.363 1.55408 149.188C0.513522 148.014 0 146.273 0 143.951V99.3374C0 97.0156 0.513522 95.2742 1.52705 94.1268C2.54058 92.9659 3.9325 92.3855 5.68928 92.3855C7.41904 92.3855 8.81096 92.9524 9.89206 94.0998C10.9461 95.2472 11.4867 96.9886 11.4867 99.3374Z" fill="#1D1D1B"/>
<path d="M97.4745 102.185H71.5957V116.089H95.4204C97.1772 116.089 98.4745 116.481 99.3394 117.264C100.204 118.046 100.637 119.086 100.637 120.368C100.637 121.651 100.218 122.704 99.3664 123.513C98.515 124.323 97.2042 124.728 95.4204 124.728H71.5957V140.846H98.3664C100.164 140.846 101.529 141.264 102.448 142.101C103.366 142.938 103.826 144.059 103.826 145.449C103.826 146.785 103.366 147.879 102.448 148.716C101.529 149.553 100.177 149.971 98.3664 149.971H67.1497C64.6496 149.971 62.8523 149.418 61.7577 148.311C60.6631 147.204 60.109 145.408 60.109 142.938V100.377C60.109 98.7298 60.3523 97.3799 60.8388 96.3405C61.3252 95.3011 62.0955 94.5316 63.1361 94.0592C64.1766 93.5867 65.5145 93.3438 67.1362 93.3438H97.461C99.2988 93.3438 100.65 93.7487 101.542 94.5586C102.434 95.3686 102.88 96.435 102.88 97.7444C102.88 99.0807 102.434 100.161 101.542 100.971C100.664 101.78 99.2988 102.185 97.4745 102.185Z" fill="#1D1D1B"/>
<path d="M128.367 125.754H124.339V143.951C124.339 146.34 123.812 148.108 122.758 149.242C121.704 150.376 120.326 150.943 118.623 150.943C116.785 150.943 115.38 150.349 114.366 149.161C113.366 147.973 112.853 146.232 112.853 143.951V100.377C112.853 97.9063 113.407 96.111 114.515 95.0041C115.623 93.8972 117.42 93.3438 119.893 93.3438H138.569C141.151 93.3438 143.353 93.4517 145.178 93.6677C147.002 93.8837 148.664 94.3292 150.124 95.0041C151.907 95.7465 153.475 96.8264 154.84 98.2168C156.205 99.6072 157.245 101.227 157.948 103.063C158.651 104.899 159.016 106.856 159.016 108.921C159.016 113.146 157.826 116.521 155.435 119.045C153.043 121.57 149.434 123.365 144.583 124.418C146.624 125.498 148.57 127.091 150.421 129.21C152.272 131.316 153.935 133.57 155.394 135.946C156.853 138.322 157.989 140.481 158.799 142.398C159.61 144.315 160.016 145.638 160.016 146.353C160.016 147.096 159.772 147.838 159.299 148.581C158.826 149.31 158.178 149.89 157.354 150.322C156.529 150.741 155.57 150.956 154.489 150.956C153.205 150.956 152.11 150.66 151.245 150.052C150.367 149.445 149.61 148.675 148.989 147.757C148.353 146.826 147.502 145.462 146.421 143.667L141.813 136.013C140.164 133.206 138.691 131.073 137.38 129.601C136.083 128.13 134.759 127.131 133.421 126.591C132.096 126.024 130.407 125.754 128.367 125.754ZM134.948 101.956H124.353V117.52H134.637C137.394 117.52 139.718 117.277 141.596 116.805C143.475 116.332 144.921 115.522 145.907 114.375C146.894 113.227 147.394 111.648 147.394 109.637C147.394 108.071 146.988 106.681 146.191 105.479C145.394 104.278 144.286 103.387 142.867 102.793C141.529 102.239 138.894 101.956 134.948 101.956Z" fill="#1D1D1B"/>
<path d="M286.667 151.276H269.342C266.842 151.276 265.058 150.709 263.991 149.602C262.923 148.481 262.383 146.7 262.383 144.256V101.668C262.383 99.1704 262.923 97.375 264.031 96.2816C265.126 95.1882 266.896 94.6348 269.356 94.6348H287.734C290.437 94.6348 292.789 94.7967 294.775 95.1342C296.762 95.4717 298.545 96.1196 300.113 97.0645C301.451 97.861 302.64 98.8734 303.667 100.102C304.694 101.33 305.492 102.68 306.032 104.151C306.573 105.636 306.843 107.202 306.843 108.849C306.843 114.518 304.005 118.663 298.329 121.295C305.775 123.671 309.505 128.274 309.505 135.131C309.505 138.303 308.694 141.152 307.073 143.689C305.451 146.227 303.262 148.103 300.491 149.305C298.762 150.02 296.775 150.533 294.532 150.83C292.275 151.127 289.653 151.276 286.667 151.276ZM273.869 103.247V117.893H284.397C287.261 117.893 289.464 117.623 291.032 117.083C292.586 116.543 293.789 115.517 294.613 113.992C295.262 112.912 295.586 111.697 295.586 110.361C295.586 107.499 294.572 105.596 292.532 104.664C290.491 103.719 287.383 103.26 283.207 103.26H273.869V103.247ZM285.816 126.127H273.869V142.663H286.207C293.964 142.663 297.843 139.869 297.843 134.281C297.843 131.419 296.843 129.354 294.829 128.058C292.816 126.762 289.816 126.127 285.816 126.127Z" fill="#1D1D1B"/>
<path d="M356.79 103.476H330.911V117.38H354.736C356.492 117.38 357.79 117.772 358.655 118.555C359.519 119.338 359.952 120.377 359.952 121.659C359.952 122.942 359.533 123.995 358.682 124.805C357.83 125.614 356.519 126.019 354.736 126.019H330.911V142.137H357.682C359.479 142.137 360.844 142.555 361.763 143.392C362.682 144.229 363.141 145.35 363.141 146.74C363.141 148.076 362.682 149.17 361.763 150.007C360.844 150.844 359.492 151.262 357.682 151.262H326.465C323.965 151.262 322.167 150.709 321.073 149.602C319.978 148.495 319.424 146.7 319.424 144.229V101.668C319.424 100.021 319.667 98.6709 320.154 97.6315C320.64 96.5921 321.411 95.8227 322.451 95.3502C323.492 94.8777 324.83 94.6348 326.451 94.6348H356.776C358.614 94.6348 359.965 95.0397 360.857 95.8497C361.749 96.6596 362.195 97.726 362.195 99.0354C362.195 100.372 361.749 101.452 360.857 102.262C359.979 103.071 358.628 103.476 356.79 103.476Z" fill="#1D1D1B"/>
<path d="M409.628 103.476H383.749V117.38H407.574C409.331 117.38 410.628 117.772 411.493 118.555C412.358 119.338 412.79 120.377 412.79 121.659C412.79 122.942 412.371 123.995 411.52 124.805C410.669 125.614 409.358 126.019 407.574 126.019H383.749V142.137H410.52C412.317 142.137 413.682 142.555 414.601 143.392C415.52 144.229 415.98 145.35 415.98 146.74C415.98 148.076 415.52 149.17 414.601 150.007C413.682 150.844 412.331 151.262 410.52 151.262H379.303C376.803 151.262 375.006 150.709 373.911 149.602C372.817 148.495 372.263 146.7 372.263 144.229V101.668C372.263 100.021 372.506 98.6709 372.992 97.6315C373.479 96.5921 374.249 95.8227 375.29 95.3502C376.33 94.8777 377.668 94.6348 379.29 94.6348H409.615C411.452 94.6348 412.804 95.0397 413.696 95.8497C414.588 96.6596 415.034 97.726 415.034 99.0354C415.034 100.372 414.588 101.452 413.696 102.262C412.817 103.071 411.453 103.476 409.628 103.476Z" fill="#1D1D1B"/>
<path d="M229.382 32.397C229.679 31.4386 230.058 29.8322 229.206 27.065C228.693 25.3776 227.571 21.6385 225.247 19.2357L229.828 10.88C230.598 9.71908 231.571 7.49178 231.247 6.1419C230.99 5.062 230.112 4.18458 228.666 3.9686C227.206 3.75262 226.247 4.88652 225.49 6.1419L220.463 15.0916C218.598 13.6202 217.044 12.8778 214.274 12.0274C207.395 10.07 201.26 13.3502 200.246 14.0117L195.962 6.1959C195.395 4.96751 193.706 3.87411 192.354 3.9821C191.422 4.06309 190.57 4.72453 189.935 5.97992C189.287 7.2623 190.854 10.178 191.53 11.4469L194.949 17.9128C194.949 17.9398 194.949 17.9668 194.935 17.9938C194.327 18.6148 186.246 27.2135 188.787 41.7112C188.8 41.7517 188.76 41.7787 188.719 41.7517C185.976 39.4569 181.584 36.3386 175.557 34.0844C168.597 31.4791 157.07 30.3047 149.07 32.5185C146.516 33.2204 126.353 39.1059 123.259 55.2774C121.772 63.0797 124.948 69.5321 126.218 72.0159C134.975 89.1188 156.908 91.2516 157.854 91.3326C165.705 91.9806 172.273 90.0772 174.313 89.4698C180.124 87.742 184.976 85.0287 189.3 82.5989C192.084 81.0331 194.354 79.6022 195.935 78.5628C199.503 75.9575 205.111 71.8134 211.909 66.6029C227.666 54.5215 229.085 52.5642 234.99 49.8644C238.679 48.1771 250.734 42.5076 264.261 46.2737C267.112 47.0702 273.396 48.8925 278.356 54.4945C279.437 55.7094 281.248 57.8017 282.396 61.0684C282.68 61.8648 284.829 68.2767 281.95 74.6212C278.207 82.8824 268.626 85.1502 264.139 86.1491C259.572 87.175 254.855 87.337 250.193 86.8375C247.058 86.5001 243.382 86.0141 239.328 85.2987C227.382 83.1929 224.801 81.357 218.53 80.3716C214.706 79.7642 195.327 77.2399 180.976 90.0907C168.462 101.295 167.8 116.98 167.759 118.641C167.719 120.287 167.557 138.268 182.178 150.322C195.53 161.337 214.895 162.215 228.909 153.656C236.301 149.148 242.504 141.913 246.207 131.788C248.166 126.281 248.639 121.57 248.72 118.452C248.855 112.958 247.869 108.989 246.139 105.911C244.815 103.549 243.598 102.645 242.328 102.348C240.598 101.943 239.085 102.753 238.882 102.874C237.355 103.725 236.774 105.101 236.639 105.493C236.625 105.533 235.598 108.787 237.693 110.717C240.193 113.025 239.733 125.93 233.95 136.122C232.828 138.106 231.76 139.429 231.409 139.861C228.166 143.802 224.558 145.692 222.787 146.624C219.017 148.608 214.963 149.58 211.422 150.052C204.976 150.903 198.449 149.499 192.868 146.178C190.895 145.004 183.449 140.522 179.692 131.397C173.408 116.116 183.124 101.781 183.895 100.674C185.8 98.3115 189.26 94.6668 194.611 92.0346C196.476 91.1167 199.773 89.6993 204.476 89.1188C218.922 87.337 231.909 94.9773 247.612 96.5297C256.72 97.4206 264.491 96.6512 269.977 95.7197C272.234 95.3418 274.41 94.6533 276.437 93.5869C280.639 91.3866 287.275 86.743 290.856 78.1173C291.356 76.9024 291.761 75.7146 292.086 74.5402C292.086 74.5402 293.248 70.2746 293.14 66.1709C292.91 58.1392 286.667 50.5933 285.991 49.7969C279.423 42.0351 270.964 39.5514 267.072 38.4715C249.625 33.5984 233.585 40.0238 227.531 43.925C218.193 49.9454 210.963 55.3314 206.098 59.1381C200.665 63.3767 181.043 78.9948 170.232 81.5865C166.408 82.5044 162.57 82.6664 162.57 82.6664C162.192 82.6664 158.056 82.8419 154.124 82.113C152.218 81.762 137.772 79.1027 132.907 67.4128C132.34 66.0359 130.745 62.1078 131.502 57.1537C132.745 49.0275 139.651 42.1836 149.245 39.1599C149.245 39.1599 162.327 34.0979 175.624 40.4018C177.084 41.0902 181.287 43.2095 182.962 44.6404C183.097 44.7619 183.597 45.1803 184.327 45.6663C184.597 45.8418 185.665 46.5167 186.814 46.9217C187.719 47.2322 190.003 48.0151 192.206 46.9082C194.003 46.0038 194.746 44.3434 194.976 43.8305C195.706 42.2106 195.611 40.6313 195.557 39.8888C195.516 39.3084 195.462 39.3489 195.354 38.35C195.273 37.675 195.138 36.3926 195.192 34.8268C195.26 32.829 195.598 31.2226 195.854 30.0482C195.908 29.8187 195.962 29.5758 195.989 29.4408C196.962 26.0121 199.381 23.4473 199.381 23.4473C199.381 23.4338 199.53 23.2988 199.665 23.1639C200.827 22.003 204.598 18.6148 209.949 19.0062C214.071 19.3032 217.882 21.7735 219.828 24.9997C222.449 29.3463 220.679 33.4769 223.571 35.0293C224.733 35.6502 226.531 35.7987 227.801 34.9753C228.814 34.2598 229.152 33.1259 229.382 32.397Z" fill="url(#paint0_linear_21_70)"/>
<path d="M182.881 158.003C184.597 159.475 187.097 161.378 190.327 163.065C198.557 167.371 206.125 167.506 209.625 167.344C221.03 166.791 229.044 161.081 232.179 158.57C232.314 158.435 233.341 157.382 234.693 157.652C234.882 157.693 235.949 157.909 236.395 158.935C236.909 160.109 236.179 161.324 236.058 161.526C236.058 161.526 235.99 161.634 235.882 161.769C235.787 161.864 235.639 162.026 235.436 162.228C234.449 163.214 231.355 166.143 223.314 169.369C222.503 169.693 221.287 170.166 219.8 170.679C218.152 171.232 215.868 171.866 213.071 172.217C209.53 172.663 206.8 172.433 204.719 172.258C202.692 172.082 200.354 171.853 197.408 171.03C194.787 170.301 192.908 169.437 191.165 168.627C190.192 168.181 187.354 166.858 183.922 164.51C179.016 161.162 178.827 159.853 178.867 159.232C178.908 158.516 179.3 157.733 179.921 157.369C180.732 156.842 181.921 157.099 182.881 158.003Z" fill="#FEB501"/>
<path d="M224.26 175.012C224.071 174.782 223.787 174.431 223.287 174.35C222.517 174.215 221.923 174.755 221.855 174.823C220.044 176.132 215.477 179.061 208.963 179.385C208.895 179.385 208.814 179.385 208.733 179.385C208.328 179.385 207.03 179.399 206.639 179.385C200.125 179.075 195.557 176.146 193.746 174.823C193.665 174.755 193.084 174.202 192.314 174.35C191.814 174.445 191.517 174.796 191.341 175.012C190.503 176.024 190.706 177.428 190.773 177.793C190.8 177.901 190.855 178.063 190.936 178.238C191.111 178.602 191.328 178.886 191.909 179.412C192.192 179.682 192.571 180.006 193.003 180.357C195.476 182.139 200.503 184.92 207.801 184.731C215.098 184.906 220.125 182.126 222.598 180.357C223.044 180.006 223.409 179.682 223.693 179.412C224.274 178.872 224.49 178.602 224.666 178.238C224.747 178.063 224.801 177.901 224.828 177.793C224.896 177.428 225.098 176.038 224.26 175.012Z" fill="#FEB501"/>
<path d="M191.3 9.90809C194.039 9.90809 196.26 7.69009 196.26 4.95405C196.26 2.218 194.039 0 191.3 0C188.561 0 186.341 2.218 186.341 4.95405C186.341 7.69009 188.561 9.90809 191.3 9.90809Z" fill="#F38800"/>
<path d="M228.624 9.90809C231.364 9.90809 233.584 7.69009 233.584 4.95405C233.584 2.218 231.364 0 228.624 0C225.885 0 223.665 2.218 223.665 4.95405C223.665 7.69009 225.885 9.90809 228.624 9.90809Z" fill="#F38800"/>
<defs>
<linearGradient id="paint0_linear_21_70" x1="210.755" y1="15.499" x2="201.099" y2="181.627" gradientUnits="userSpaceOnUse">
<stop/>
<stop offset="0.1256" stop-color="#FF9A00"/>
<stop offset="0.7518" stop-color="#F9B233"/>
<stop offset="0.9207" stop-color="#FEC400"/>
</linearGradient>
</defs>
</svg>
