<svg width="38" height="38" viewBox="0 0 38 38" fill="none" xmlns="http://www.w3.org/2000/svg">
<path d="M22.5626 3.57841L22.4359 3.51508L22.4201 3.54675C21.3117 3.30925 20.1717 3.16675 19.0001 3.16675C10.2601 3.16675 3.16675 10.2601 3.16675 19.0001C3.16675 27.7401 10.2601 34.8334 19.0001 34.8334C27.7401 34.8334 34.8334 27.7401 34.8334 19.0001C34.8334 11.4792 29.5926 5.19341 22.5626 3.57841ZM30.7326 14.2501H18.0817L22.3726 6.80841C26.1726 7.85342 29.2601 10.6401 30.7326 14.2501ZM20.7417 6.46008L16.2609 14.2501L14.4401 17.4167L10.1334 9.97508C12.4938 7.6405 15.6802 6.33181 19.0001 6.33341C19.5859 6.33341 20.1717 6.38091 20.7417 6.46008ZM9.02508 11.2259L13.5217 19.0001L15.3426 22.1667H6.74508C6.49175 21.1534 6.33341 20.0926 6.33341 19.0001C6.33341 16.0709 7.34675 13.3792 9.02508 11.2259ZM7.26758 23.7501H19.9026L15.6117 31.1917C13.7459 30.6689 12.0243 29.7266 10.5781 28.4369C9.13201 27.1472 7.99968 25.5441 7.26758 23.7501ZM17.2584 31.5242L23.5759 20.5834L27.8826 28.0251C25.5143 30.3574 22.324 31.6653 19.0001 31.6667C18.3984 31.6667 17.8284 31.6034 17.2584 31.5242ZM28.9751 26.7742L22.6417 15.8334H31.2392C31.5084 16.8467 31.6667 17.9076 31.6667 19.0001C31.6667 21.9292 30.6534 24.6209 28.9751 26.7742Z" fill="#FFC700"/>
</svg>
