<svg width="41" height="41" viewBox="0 0 41 41" fill="none" xmlns="http://www.w3.org/2000/svg">
<g clip-path="url(#clip0_221_114)">
<path d="M18.7917 19.6459C15.0898 17.0834 8.54171 10.2501 15.375 5.12511C17.1244 3.81311 22.2084 2.56261 26.4792 6.83344C28.1073 8.46148 27.564 10.0776 23.9167 12.8126C22.2733 14.0443 19.9875 16.0584 21.3542 18.7918C23.9167 15.0915 30.75 8.54177 35.875 15.3751C37.187 17.1261 38.4375 22.2084 34.1667 26.4793C32.5387 28.1073 30.9226 27.5641 28.1875 23.9168C26.9558 22.2751 24.9417 19.9876 22.2084 21.3543C25.9103 23.9168 32.4584 30.7501 25.625 35.8751C23.874 37.1888 18.7917 38.4376 14.5209 34.1668C12.8928 32.5387 13.4361 30.9244 17.0834 28.1876C18.7251 26.9576 21.0125 24.9418 19.6459 22.2084C17.0834 25.9104 10.25 32.4584 5.12504 25.6251C3.81304 23.8758 2.56254 18.7918 6.83338 14.5209C8.46142 12.8929 10.0775 13.4361 12.8125 17.0834C14.0443 18.7269 16.0584 21.0126 18.7917 19.6459Z" fill="#FFC700"/>
</g>
<defs>
<clipPath id="clip0_221_114">
<rect width="41" height="41" fill="white"/>
</clipPath>
</defs>
</svg>
