<svg width="86" height="96" viewBox="0 0 86 96" fill="none" xmlns="http://www.w3.org/2000/svg">
<path d="M53.8636 17.3969C54.0116 16.9085 54.1999 16.0898 53.7761 14.6796C53.5205 13.8198 52.9623 11.9143 51.8053 10.6898L54.0855 6.43163C54.4689 5.84003 54.9532 4.70498 54.7918 4.01707C54.664 3.46675 54.2268 3.01961 53.5071 2.90954C52.7807 2.79948 52.3031 3.37732 51.9264 4.01707L49.4243 8.5779C48.4961 7.82808 47.7225 7.44973 46.3437 7.01635C42.92 6.01888 39.8663 7.6905 39.3619 8.02757L37.2297 4.04459C36.9472 3.41859 36.1064 2.86139 35.4338 2.91642C34.9697 2.9577 34.5459 3.29477 34.2298 3.93453C33.9069 4.58804 34.6872 6.07392 35.0235 6.72055L36.7252 10.0156C36.7252 10.0294 36.7252 10.0431 36.7185 10.0569C36.4158 10.3733 32.3935 14.7553 33.6581 22.1434C33.6648 22.1641 33.6446 22.1778 33.6244 22.1641C32.259 20.9946 30.073 19.4056 27.0731 18.2568C23.6091 16.9291 17.8717 16.3306 13.8897 17.4588C12.6185 17.8165 2.583 20.8158 1.0427 29.0569C0.302818 33.033 1.88348 36.3212 2.51574 37.587C6.87432 46.3027 17.7909 47.3896 18.2618 47.4309C22.1697 47.7611 25.4386 46.7912 26.4543 46.4816C29.3466 45.6011 31.7613 44.2184 33.9137 42.9801C35.2993 42.1822 36.4293 41.453 37.2162 40.9233C38.9919 39.5956 41.7833 37.4838 45.1666 34.8284C53.0093 28.6717 53.7156 27.6742 56.6549 26.2984C58.4912 25.4385 64.491 22.5493 71.2239 24.4686C72.6431 24.8744 75.7708 25.8031 78.2393 28.6579C78.7774 29.277 79.6787 30.3433 80.2505 32.008C80.3917 32.4139 81.4612 35.6814 80.0285 38.9146C78.1653 43.1246 73.3965 44.2803 71.1634 44.7893C68.8899 45.3122 66.5425 45.3947 64.2219 45.1402C62.6614 44.9682 60.8319 44.7206 58.8141 44.356C52.8681 43.2828 51.5834 42.3473 48.4624 41.8451C46.5589 41.5355 36.9135 40.2492 29.7703 46.798C23.5418 52.5077 23.2123 60.5012 23.1921 61.3473C23.1719 62.1865 23.0912 71.3494 30.3689 77.4925C37.0144 83.1058 46.6531 83.5529 53.6282 79.1916C57.3074 76.894 60.3947 73.2068 62.2377 68.0475C63.213 65.2408 63.4484 62.84 63.4888 61.251C63.556 58.4512 63.065 56.4287 62.2041 54.8603C61.5449 53.6565 60.9395 53.1956 60.3073 53.0442C59.4463 52.8379 58.693 53.2506 58.5921 53.3125C57.832 53.7459 57.5428 54.4476 57.4755 54.6471C57.4688 54.6677 56.9576 56.3256 58.0002 57.3093C59.2445 58.4856 59.0158 65.062 56.137 70.2557C55.5788 71.2669 55.0474 71.9411 54.8725 72.1612C53.2582 74.1699 51.4623 75.1329 50.5812 75.6076C48.7046 76.6188 46.6867 77.1141 44.9244 77.3549C41.716 77.7883 38.4673 77.0728 35.6894 75.3806C34.7073 74.7821 31.0012 72.4983 29.1313 67.848C26.0036 60.0609 30.8398 52.7553 31.2232 52.1912C32.1716 50.9874 33.8935 49.13 36.557 47.7886C37.4853 47.3208 39.1265 46.5985 41.4672 46.3027C48.6575 45.3947 55.1214 49.2883 62.9372 50.0794C67.4707 50.5334 71.3382 50.1413 74.0691 49.6666C75.1924 49.474 76.2753 49.1232 77.2842 48.5797C79.3761 47.4584 82.6786 45.092 84.4611 40.6963C84.7099 40.0772 84.9117 39.4718 85.0732 38.8733C85.0732 38.8733 85.6516 36.6996 85.5978 34.6083C85.4835 30.5153 82.3759 26.6699 82.0396 26.264C78.7707 22.3085 74.5601 21.0428 72.623 20.4925C63.9394 18.0091 55.9554 21.2836 52.9421 23.2716C48.2943 26.3397 44.6958 29.0844 42.2743 31.0243C39.5704 33.1843 29.8039 41.1434 24.423 42.4642C22.5195 42.932 20.6092 43.0145 20.6092 43.0145C20.4209 43.0145 18.3627 43.104 16.4054 42.7325C15.457 42.5536 8.26664 41.1985 5.84521 35.2412C5.56271 34.5395 4.76902 32.5377 5.14568 30.0131C5.76449 25.8719 9.20159 22.3842 13.9772 20.8433C13.9772 20.8433 20.4882 18.2636 27.1067 21.4762C27.8332 21.827 29.925 22.907 30.7591 23.6362C30.8263 23.6981 31.0752 23.9114 31.4384 24.159C31.5729 24.2484 32.1043 24.5924 32.676 24.7988C33.1267 24.957 34.2634 25.356 35.3598 24.7919C36.2544 24.331 36.6243 23.4849 36.7387 23.2234C37.1019 22.398 37.0548 21.5931 37.0279 21.2148C37.0077 20.919 36.9808 20.9396 36.927 20.4305C36.8866 20.0866 36.8194 19.4331 36.8463 18.6351C36.8799 17.617 37.0481 16.7984 37.1759 16.1999C37.2028 16.083 37.2297 15.9591 37.2431 15.8904C37.7274 14.1431 38.9314 12.836 38.9314 12.836C38.9314 12.8292 39.0054 12.7604 39.0727 12.6916C39.6511 12.1 41.5277 10.3733 44.1913 10.5728C46.2428 10.7242 48.1396 11.983 49.1081 13.6271C50.413 15.8422 49.5319 17.9472 50.9713 18.7383C51.5498 19.0547 52.4443 19.1304 53.0766 18.7108C53.5811 18.3462 53.7492 17.7683 53.8636 17.3969Z" fill="url(#paint0_linear_219_37)"/>
<path d="M30.7186 81.4067C31.5728 82.1565 32.8172 83.1264 34.4247 83.9863C38.521 86.1807 42.2877 86.2495 44.0298 86.167C49.7067 85.8849 53.6953 82.9751 55.2558 81.6956C55.323 81.6268 55.8342 81.0902 56.5069 81.2278C56.601 81.2484 57.1324 81.3585 57.3544 81.8813C57.61 82.4798 57.2467 83.0989 57.1862 83.2021C57.1862 83.2021 57.1526 83.2571 57.0988 83.3259C57.0517 83.3741 56.9777 83.4566 56.8768 83.5598C56.3858 84.062 54.8455 85.5547 50.8434 87.1988C50.4398 87.3639 49.8345 87.6047 49.0946 87.8661C48.274 88.1482 47.1373 88.4715 45.7449 88.6503C43.9827 88.8773 42.624 88.7604 41.5881 88.671C40.5792 88.5815 39.4156 88.4646 37.9493 88.045C36.6444 87.6735 35.7094 87.2332 34.8418 86.8205C34.3575 86.5935 32.945 85.9193 31.2365 84.7224C28.7949 83.0164 28.7007 82.3491 28.7209 82.0327C28.7411 81.6681 28.9362 81.2691 29.2456 81.0833C29.6491 80.8151 30.241 80.9458 30.7186 81.4067Z" fill="#FEB501"/>
<path d="M51.3142 90.0745C51.2201 89.9576 51.0788 89.7787 50.8299 89.7374C50.4465 89.6687 50.1506 89.9438 50.117 89.9782C49.2157 90.6455 46.9422 92.1382 43.7002 92.3033C43.6665 92.3033 43.6262 92.3033 43.5858 92.3033C43.384 92.3033 42.7383 92.3102 42.5433 92.3033C39.3012 92.1451 37.0278 90.6524 36.1265 89.9782C36.0861 89.9438 35.7969 89.6618 35.4135 89.7374C35.1646 89.7856 35.0166 89.9645 34.9292 90.0745C34.5122 90.5904 34.6131 91.3059 34.6467 91.4916C34.6601 91.5466 34.6871 91.6292 34.7274 91.7186C34.8148 91.9044 34.9225 92.0488 35.2117 92.3171C35.3529 92.4547 35.5413 92.6198 35.7565 92.7986C36.9874 93.7067 39.4896 95.1238 43.1217 95.0275C46.7539 95.1169 49.256 93.6998 50.4869 92.7986C50.7089 92.6198 50.8905 92.4547 51.0317 92.3171C51.321 92.0419 51.4286 91.9044 51.516 91.7186C51.5564 91.6292 51.5833 91.5466 51.5967 91.4916C51.6304 91.3059 51.7313 90.5973 51.3142 90.0745Z" fill="#FEB501"/>
<path d="M34.9092 5.93645C36.2725 5.93645 37.3777 4.80614 37.3777 3.41183C37.3777 2.01752 36.2725 0.887207 34.9092 0.887207C33.5459 0.887207 32.4407 2.01752 32.4407 3.41183C32.4407 4.80614 33.5459 5.93645 34.9092 5.93645Z" fill="#F38800"/>
<path d="M53.4871 5.93645C54.8504 5.93645 55.9556 4.80614 55.9556 3.41183C55.9556 2.01752 54.8504 0.887207 53.4871 0.887207C52.1237 0.887207 51.0186 2.01752 51.0186 3.41183C51.0186 4.80614 52.1237 5.93645 53.4871 5.93645Z" fill="#F38800"/>
<defs>
<linearGradient id="paint0_linear_219_37" x1="44.5923" y1="8.78551" x2="39.555" y2="93.4319" gradientUnits="userSpaceOnUse">
<stop/>
<stop offset="0.1256" stop-color="#FF9A00"/>
<stop offset="0.7518" stop-color="#F9B233"/>
<stop offset="0.9207" stop-color="#FEC400"/>
</linearGradient>
</defs>
</svg>
