<svg width="32" height="29" viewBox="0 0 32 29" fill="none" xmlns="http://www.w3.org/2000/svg">
<path d="M16 0.411987C17.6974 0.411987 19.3253 1.07843 20.5255 2.2647C21.7257 3.45097 22.4 5.0599 22.4 6.73754C22.4 7.89195 22.096 8.96729 21.536 9.90031H25.6C27.12 9.90031 28.4 10.9598 28.72 12.3673C31.936 25.0342 32 25.3663 32 25.7142C32 26.553 31.6629 27.3575 31.0627 27.9506C30.4626 28.5437 29.6487 28.877 28.8 28.877H3.2C2.35131 28.877 1.53737 28.5437 0.937258 27.9506C0.337142 27.3575 0 26.553 0 25.7142C0 25.3663 0.0640003 25.0342 3.28 12.3673C3.6 10.9598 4.88 9.90031 6.4 9.90031H10.464C9.89205 8.94262 9.59346 7.8496 9.6 6.73754C9.6 5.0599 10.2743 3.45097 11.4745 2.2647C12.6747 1.07843 14.3026 0.411987 16 0.411987ZM16 3.57476C15.1513 3.57476 14.3374 3.90798 13.7373 4.50112C13.1371 5.09425 12.8 5.89872 12.8 6.73754C12.8 7.57636 13.1371 8.38082 13.7373 8.97396C14.3374 9.56709 15.1513 9.90031 16 9.90031C16.8487 9.90031 17.6626 9.56709 18.2627 8.97396C18.8629 8.38082 19.2 7.57636 19.2 6.73754C19.2 5.89872 18.8629 5.09425 18.2627 4.50112C17.6626 3.90798 16.8487 3.57476 16 3.57476Z" fill="#FFC700"/>
</svg>
