<svg width="20" height="28" viewBox="0 0 20 28" fill="none" xmlns="http://www.w3.org/2000/svg">
<path d="M18.3067 12.0307L10.9411 0.731122C10.8342 0.586622 10.6931 0.468823 10.5294 0.387543C10.3657 0.306262 10.1842 0.263855 10 0.263855C9.81583 0.263855 9.63433 0.306262 9.47063 0.387543C9.30692 0.468823 9.16576 0.586622 9.05889 0.731122L1.66 12.0842C0.632095 13.6816 0.0595176 15.5119 0 17.3904C0 19.9455 1.05357 22.3959 2.92893 24.2027C4.8043 26.0094 7.34784 27.0244 10 27.0244C12.6522 27.0244 15.1957 26.0094 17.0711 24.2027C18.9464 22.3959 20 19.9455 20 17.3904C19.9361 15.4912 19.3519 13.6421 18.3067 12.0307Z" fill="#FFC700"/>
</svg>
